<svg width="14" height="15" viewBox="0 0 14 15" fill="none" xmlns="http://www.w3.org/2000/svg">
<g clip-path="url(#clip0_78:4864)">
<path d="M7 14.6985C5.61553 14.6985 4.26216 14.2879 3.11101 13.5188C1.95987 12.7496 1.06266 11.6564 0.532846 10.3773C0.00303297 9.09819 -0.13559 7.69072 0.134506 6.33286C0.404603 4.97499 1.07129 3.72771 2.05026 2.74874C3.02922 1.76977 4.2765 1.10309 5.63437 0.832993C6.99224 0.562896 8.3997 0.701519 9.67879 1.23133C10.9579 1.76115 12.0511 2.65835 12.8203 3.8095C13.5895 4.96064 14 6.31402 14 7.69849C13.998 9.55438 13.2598 11.3337 11.9475 12.646C10.6352 13.9583 8.8559 14.6965 7 14.6985ZM7 1.13599C5.70206 1.13599 4.43327 1.52087 3.35407 2.24197C2.27488 2.96307 1.43374 3.98799 0.937044 5.18713C0.440344 6.38627 0.310384 7.70577 0.5636 8.97877C0.816815 10.2518 1.44183 11.4211 2.35961 12.3389C3.2774 13.2567 4.44672 13.8817 5.71972 14.1349C6.99272 14.3881 8.31222 14.2581 9.51136 13.7614C10.7105 13.2647 11.7354 12.4236 12.4565 11.3444C13.1776 10.2652 13.5625 8.99643 13.5625 7.69849C13.5605 5.95863 12.8684 4.29061 11.6382 3.06034C10.4079 1.83007 8.73986 1.13802 7 1.13599Z" fill="#6D7076"/>
<path d="M7.14551 11.4172C6.53579 11.4172 5.93542 11.2673 5.39728 10.9807C4.85914 10.694 4.39973 10.2795 4.05951 9.77351C3.71929 9.26753 3.50871 8.68566 3.44629 8.07915C3.38388 7.47263 3.47156 6.86007 3.7016 6.29541C3.93165 5.73076 4.297 5.23133 4.7655 4.8411C5.23399 4.45088 5.79124 4.18184 6.38819 4.05767C6.98513 3.9335 7.60345 3.95801 8.18869 4.12905C8.77393 4.30009 9.30813 4.6124 9.74426 5.03849C9.76641 5.05813 9.78435 5.08206 9.79698 5.10883C9.80961 5.1356 9.81668 5.16466 9.81775 5.19425C9.81882 5.22383 9.81388 5.25333 9.80322 5.28094C9.79255 5.30856 9.7764 5.33373 9.75573 5.35492C9.73505 5.37611 9.7103 5.39289 9.68295 5.40423C9.6556 5.41557 9.62624 5.42124 9.59664 5.4209C9.56704 5.42057 9.53781 5.41422 9.51073 5.40226C9.48366 5.39029 9.45929 5.37296 9.43911 5.3513C8.97866 4.90131 8.396 4.59672 7.7637 4.47546C7.1314 4.3542 6.4774 4.42164 5.88315 4.66937C5.2889 4.91709 4.78065 5.33417 4.42172 5.86865C4.06278 6.40313 3.86901 7.0314 3.86454 7.6752C3.86007 8.31901 4.04509 8.9499 4.39657 9.48931C4.74805 10.0287 5.25046 10.4528 5.84121 10.7088C6.43196 10.9647 7.08496 11.0413 7.71889 10.9288C8.35281 10.8163 8.93964 10.5199 9.40629 10.0763C9.44835 10.0363 9.5046 10.0146 9.56264 10.016C9.62069 10.0175 9.67579 10.0419 9.71582 10.084C9.75586 10.126 9.77754 10.1823 9.7761 10.2403C9.77467 10.2984 9.75023 10.3535 9.70817 10.3935C9.0178 11.0522 8.09974 11.419 7.14551 11.4172Z" fill="#6D7076"/>
</g>
<defs>
<clipPath id="clip0_78:4864">
<rect width="14" height="14" fill="white" transform="translate(0 0.698486)"/>
</clipPath>
</defs>
</svg>
