<svg width="20" height="20" viewBox="0 0 20 20" fill="none" xmlns="http://www.w3.org/2000/svg">
<path d="M19.0625 3.75C19.235 3.75 19.375 3.61 19.375 3.4375V2.8125C19.375 1.95063 18.6744 1.25 17.8125 1.25H17.1875C17.015 1.25 16.875 1.39 16.875 1.5625C16.875 1.735 17.015 1.875 17.1875 1.875H17.8125C18.3294 1.875 18.75 2.29562 18.75 2.8125V3.4375C18.75 3.61 18.89 3.75 19.0625 3.75Z" fill="#F37E09"/>
<path d="M0.625 17.1875V16.5625C0.625 16.39 0.765 16.25 0.9375 16.25H14.0625C14.235 16.25 14.375 16.39 14.375 16.5625V17.1875C14.375 17.7044 14.7956 18.125 15.3125 18.125C15.485 18.125 15.625 18.265 15.625 18.4375C15.625 18.61 15.485 18.75 15.3125 18.75H2.1875C1.32563 18.75 0.625 18.0494 0.625 17.1875ZM13.75 17.1875V16.875H1.25V17.1875C1.25 17.7044 1.67062 18.125 2.1875 18.125H14.0631C13.8669 17.8637 13.75 17.5394 13.75 17.1875Z" fill="#F37E09"/>
<path d="M13.7569 11.2562C13.6351 11.3787 13.6351 11.5762 13.7569 11.6987L14.6407 12.5825C14.7626 12.7044 14.9607 12.7044 15.0826 12.5825C15.2044 12.4606 15.2044 12.2625 15.0826 12.1406L14.1988 11.2562C14.0763 11.1337 13.8788 11.1337 13.7569 11.2562Z" fill="#F37E09"/>
<path d="M10.625 13.125C7.86813 13.125 5.625 10.8819 5.625 8.125C5.625 5.36813 7.86813 3.125 10.625 3.125C11.6625 3.125 12.6575 3.44 13.5031 4.03625C13.6444 4.135 13.6781 4.33062 13.5787 4.47125C13.4794 4.6125 13.2837 4.64688 13.1431 4.54625C12.4037 4.025 11.5331 3.75 10.625 3.75C8.2125 3.75 6.25 5.71312 6.25 8.125C6.25 10.5369 8.2125 12.5 10.625 12.5C13.0375 12.5 15 10.5369 15 8.125C15 7.67562 14.9325 7.23313 14.7987 6.80938C14.7469 6.64438 14.8381 6.46875 15.0031 6.4175C15.1681 6.36687 15.3431 6.45687 15.395 6.62125C15.5475 7.10625 15.625 7.6125 15.625 8.125C15.625 10.8819 13.3819 13.125 10.625 13.125Z" fill="#F37E09"/>
<path d="M15.625 12.5C15.785 12.5 15.945 12.5612 16.0669 12.6831L18.5669 15.1831C18.8113 15.4275 18.8113 15.8225 18.5669 16.0669C18.445 16.1888 18.285 16.25 18.125 16.25C17.965 16.25 17.805 16.1888 17.6831 16.0669L15.1831 13.5669C14.9387 13.3225 14.9387 12.9275 15.1831 12.6831C15.305 12.5612 15.465 12.5 15.625 12.5ZM15.625 11.875C15.2912 11.875 14.9775 12.005 14.7413 12.2413C14.505 12.4775 14.375 12.7912 14.375 13.125C14.375 13.4588 14.505 13.7725 14.7413 14.0087L17.2413 16.5087C17.4775 16.745 17.7912 16.875 18.125 16.875C18.4587 16.875 18.7725 16.745 19.0087 16.5087C19.245 16.2725 19.375 15.9587 19.375 15.625C19.375 15.2912 19.245 14.9775 19.0087 14.7413L16.5087 12.2413C16.2725 12.005 15.9588 11.875 15.625 11.875Z" fill="#F37E09"/>
<path d="M10.3126 9.99999C10.3101 9.99999 10.3076 9.99999 10.3051 9.99999C10.2145 9.99749 10.1301 9.95687 10.072 9.88749L8.50951 8.01249C8.39951 7.87937 8.41763 7.68249 8.54951 7.57187C8.68263 7.46187 8.87888 7.47999 8.99013 7.61187L10.3233 9.21249L14.7695 4.47624C14.887 4.34874 15.0845 4.34124 15.2108 4.45687C15.3376 4.57374 15.3464 4.77124 15.2295 4.89874L10.5426 9.89874C10.4833 9.96312 10.4008 9.99999 10.3126 9.99999Z" fill="#F37E09"/>
<path d="M17.8125 1.875C17.985 1.875 18.125 1.735 18.125 1.5625C18.125 1.39 17.985 1.25 17.8125 1.25H5.3125C4.45063 1.25 3.75 1.95063 3.75 2.8125V15.3125C3.75 15.485 3.89 15.625 4.0625 15.625C4.235 15.625 4.375 15.485 4.375 15.3125V2.8125C4.375 2.29562 4.79562 1.875 5.3125 1.875H16.5631C16.3669 2.13625 16.25 2.46125 16.25 2.8125V10.9375C16.25 11.11 16.39 11.25 16.5625 11.25C16.735 11.25 16.875 11.11 16.875 10.9375V2.8125C16.875 2.29562 17.2956 1.875 17.8125 1.875Z" fill="#F37E09"/>
<path d="M15.3125 18.125H14.2188V18.75H15.3125C16.1744 18.75 16.875 18.0494 16.875 17.1875C16.875 17.015 16.735 16.875 16.5625 16.875C16.39 16.875 16.25 17.015 16.25 17.1875C16.25 17.7044 15.8294 18.125 15.3125 18.125Z" fill="#F37E09"/>
</svg>
