<svg width="20" height="20" viewBox="0 0 20 20" fill="none" xmlns="http://www.w3.org/2000/svg">
<path d="M19.8886 8.34938L19.8801 8.33063L19.8851 8.32687L19.8233 8.20875L16.517 1.91437C16.427 1.75 16.113 1.2675 15.5083 1.2675H4.43421C3.76015 1.2675 3.42265 1.93156 3.41515 1.94719L0.168584 8.12906C0.168584 8.12906 0.167646 8.13188 0.167021 8.13188L0.144209 8.17594C0.0898338 8.28375 -0.0311037 8.57625 0.0888963 8.865C0.913896 10.2041 2.38452 11.1031 4.07233 11.1031C5.72296 11.1031 7.16233 10.2413 7.99671 8.9525C8.12421 8.65906 7.94671 8.2925 7.94671 8.2925L4.87483 2.44281L4.84483 2.38594C4.80358 2.29094 4.76671 2.10937 5.09608 2.10937H9.12358C9.23796 2.11312 9.5564 2.16969 9.5564 2.70281V16.5603C9.5489 16.6978 9.49702 16.9756 9.2114 17.1519L7.19515 18.3988C7.19515 18.3988 6.6664 18.7325 7.19515 18.7325H12.9164C13.3061 18.7325 12.9164 18.4616 12.9164 18.4616L10.8395 17.1903C10.8386 17.1903 10.8386 17.1894 10.8376 17.1894C10.4964 16.9803 10.4326 16.7169 10.4233 16.5837V2.64344C10.4233 2.16156 10.7686 2.11187 10.8901 2.10906H14.8276C14.9314 2.11094 15.2455 2.145 15.047 2.52344L11.9636 8.39344C11.9636 8.39344 11.8676 8.625 11.9758 8.87813C12.802 10.2094 14.2667 11.1031 15.9492 11.1031C17.6351 11.1031 19.1051 10.2078 19.9298 8.87156C20.012 8.65594 19.9192 8.41688 19.8886 8.34938ZM6.5064 9.55688C5.98671 9.92813 5.06983 10.4747 4.12577 10.5113C4.10733 10.5131 4.09015 10.5178 4.07233 10.5197C4.06952 10.5187 4.06858 10.5169 4.06671 10.5147C4.02546 10.5178 3.98515 10.5241 3.9439 10.5241C3.92265 10.5241 3.90265 10.5194 3.88108 10.5194C2.90452 10.5091 1.9939 9.895 1.52046 9.51344H1.52077C1.52077 9.51344 1.1439 9.21531 1.52077 9.21531H2.0014L6.1339 9.21625H6.49827C6.49796 9.21656 6.87171 9.30844 6.5064 9.55688ZM6.9489 8.16469L6.94921 8.16562L6.9914 8.24625C7.05702 8.38125 7.15546 8.63906 6.94921 8.63906L1.09483 8.63812C0.900771 8.63812 0.939209 8.46 1.00108 8.31656L1.0939 8.14031L1.09483 8.13937L3.88577 2.825C3.88577 2.825 4.02827 2.60469 4.1439 2.825H4.14421L6.9489 8.16469ZM13.2414 8.63812C12.8461 8.63812 12.918 8.36812 12.982 8.22937L13.0233 8.15063C13.0233 8.14969 13.0248 8.14687 13.0248 8.14687L15.7533 2.95125C15.7567 2.94562 15.9423 2.59312 16.1308 2.95219L18.8514 8.13188C18.908 8.24344 19.0801 8.63906 18.6761 8.63906L13.2423 8.63812C13.2417 8.63812 13.2417 8.63812 13.2414 8.63812ZM13.5536 9.55969C13.5173 9.52875 13.488 9.50156 13.4564 9.47344C13.2505 9.23813 13.6217 9.21594 13.6217 9.21594H14.0801L18.1389 9.21688H18.2933C18.2933 9.21688 18.647 9.23187 18.4295 9.46156C18.4173 9.47156 18.4061 9.48187 18.393 9.49344C18.3726 9.51281 18.3489 9.53281 18.3211 9.55531C18.3067 9.5675 18.2908 9.58063 18.2751 9.59281C18.2489 9.61312 18.2264 9.63125 18.2076 9.64719C17.7164 10.0353 16.8905 10.5425 15.9489 10.5247C14.9048 10.5609 14.0217 9.95906 13.5536 9.55969Z" fill="#F37E09"/>
</svg>
