<svg width="20" height="20" viewBox="0 0 20 20" fill="none" xmlns="http://www.w3.org/2000/svg">
<path d="M14.3375 5.625V14.125H8.3C8.27531 13.7415 8.10554 13.3817 7.8252 13.1189C7.54485 12.856 7.17494 12.7097 6.79062 12.7097C6.40631 12.7097 6.0364 12.856 5.75605 13.1189C5.47571 13.3817 5.30594 13.7415 5.28125 14.125H3.75V5.625H14.3375Z" stroke="#F37E09" stroke-linecap="round" stroke-linejoin="round"/>
<path d="M19.3749 11.125V14.125H18.3687C18.344 13.7415 18.1742 13.3817 17.8938 13.1189C17.6135 12.856 17.2436 12.7097 16.8593 12.7097C16.475 12.7097 16.1051 12.856 15.8247 13.1189C15.5444 13.3817 15.3746 13.7415 15.3499 14.125H14.3374V8.125H16.4437L19.3749 11.125Z" stroke="#F37E09" stroke-linecap="round" stroke-linejoin="round"/>
<path d="M19.3749 11.125V14.125H18.3687C18.344 13.7415 18.1742 13.3817 17.8938 13.1189C17.6135 12.856 17.2436 12.7097 16.8593 12.7097C16.475 12.7097 16.1051 12.856 15.8247 13.1189C15.5444 13.3817 15.3746 13.7415 15.3499 14.125H14.3374V11.125H19.3749Z" stroke="#F37E09" stroke-linecap="round" stroke-linejoin="round"/>
<path d="M6.7874 15.625C7.62273 15.625 8.2999 14.9534 8.2999 14.125C8.2999 13.2966 7.62273 12.625 6.7874 12.625C5.95207 12.625 5.2749 13.2966 5.2749 14.125C5.2749 14.9534 5.95207 15.625 6.7874 15.625Z" stroke="#F37E09" stroke-linecap="round" stroke-linejoin="round"/>
<path d="M16.8562 15.625C17.6916 15.625 18.3687 14.9534 18.3687 14.125C18.3687 13.2966 17.6916 12.625 16.8562 12.625C16.0209 12.625 15.3438 13.2966 15.3438 14.125C15.3438 14.9534 16.0209 15.625 16.8562 15.625Z" stroke="#F37E09" stroke-linecap="round" stroke-linejoin="round"/>
<path d="M0.625 6.625H2.25625" stroke="#F37E09" stroke-linecap="round" stroke-linejoin="round"/>
<path d="M0.625 8.625H2.25625" stroke="#F37E09" stroke-linecap="round" stroke-linejoin="round"/>
<path d="M0.625 10.625H2.25625" stroke="#F37E09" stroke-linecap="round" stroke-linejoin="round"/>
</svg>
