<svg width="20" height="20" viewBox="0 0 20 20" fill="none" xmlns="http://www.w3.org/2000/svg">
<path d="M17.6849 3.89999H12.2031V5.16363H17.6849V3.89999Z" fill="#F37E09"/>
<path d="M17.6849 5.77272H12.2031V7.03636H17.6849V5.77272Z" fill="#F37E09"/>
<path d="M17.6849 7.64241H12.2031V8.90605H17.6849V7.64241Z" fill="#F37E09"/>
<path d="M17.6851 9.51212H14.9336V10.7758H17.6851V9.51212Z" fill="#F37E09"/>
<path d="M17.6851 11.3818H14.9336V12.6454H17.6851V11.3818Z" fill="#F37E09"/>
<path d="M17.6851 13.2515H14.9336V14.5151H17.6851V13.2515Z" fill="#F37E09"/>
<path d="M17.6851 15.1242H14.9336V16.3879H17.6851V15.1242Z" fill="#F37E09"/>
<path d="M17.6851 16.9939H14.9336V18.2576H17.6851V16.9939Z" fill="#F37E09"/>
<path d="M8.47304 1.78181H1.97607V3.21515H8.47304V1.78181Z" fill="#F37E09"/>
<path d="M8.47304 3.89999H1.97607V5.33333H8.47304V3.89999Z" fill="#F37E09"/>
<path d="M8.47304 6.02121H1.97607V7.45454H8.47304V6.02121Z" fill="#F37E09"/>
<path d="M4.65486 8.68788H8.47304V8.14243H1.97607V9.57576H4.65486V8.68788Z" fill="#F37E09"/>
<path d="M4.65486 10.2606H1.97607V11.6939H4.65486V10.2606Z" fill="#F37E09"/>
<path d="M4.65486 12.3818H1.97607V13.8152H4.65486V12.3818Z" fill="#F37E09"/>
<path d="M4.65486 14.503H1.97607V15.9364H4.65486V14.503Z" fill="#F37E09"/>
<path d="M4.65486 16.6212H1.97607V18.0545H4.65486V16.6212Z" fill="#F37E09"/>
<path d="M4.65488 18.8333H1.30336V1.16666H9.13064V8.6909H9.57609V0.942419C9.57609 0.821207 9.47609 0.721207 9.35488 0.721207H1.07912C0.95791 0.721207 0.85791 0.821207 0.85791 0.942419V19.0545C0.85791 19.1758 0.95791 19.2758 1.07912 19.2758H4.65488V18.8333Z" fill="#F37E09"/>
<path d="M18.4759 2.87878H11.4092C11.288 2.87878 11.188 2.97878 11.188 3.1V8.71515H11.6334V3.32121H18.2577V18.8303H14.9334V19.2758H18.4789C18.6001 19.2758 18.7001 19.1758 18.7001 19.0545V3.10303C18.6971 2.97878 18.6001 2.87878 18.4759 2.87878Z" fill="#F37E09"/>
<path d="M5.4547 8.70303H4.74561V19.0545H5.4547V8.70303Z" fill="#F37E09"/>
<path d="M14.9244 8.70303H14.2153V19.0545H14.9244V8.70303Z" fill="#F37E09"/>
<path d="M14.9244 19.2788H4.74563C4.62441 19.2788 4.52441 19.1788 4.52441 19.0576V8.70606C4.52441 8.58485 4.62441 8.48485 4.74563 8.48485H14.9214C15.0426 8.48485 15.1426 8.58485 15.1426 8.70606V19.0576C15.1456 19.1788 15.0456 19.2788 14.9244 19.2788ZM4.96684 18.8333H14.7002V8.92727H4.96684V18.8333Z" fill="#F37E09"/>
<path d="M19.476 19.2788H0.524435C0.403223 19.2788 0.303223 19.1788 0.303223 19.0576C0.303223 18.9364 0.403223 18.8364 0.524435 18.8364H19.4729C19.5941 18.8364 19.6941 18.9364 19.6941 19.0576C19.6972 19.1788 19.5972 19.2788 19.476 19.2788Z" fill="#F37E09"/>
<path d="M13.1152 19.0485V13.6273C13.1152 13.5061 13.0152 13.4061 12.894 13.4061H6.77883C6.65762 13.4061 6.55762 13.5061 6.55762 13.6273V19.0485H13.1152ZM7.00004 13.8485H12.6697V18.8727H7.00004V13.8485Z" fill="#F37E09"/>
<path d="M6.92722 9.71817H5.95752V12.4939H6.92722V9.71817Z" fill="#F37E09"/>
<path d="M8.62399 9.71817H7.6543V12.4939H8.62399V9.71817Z" fill="#F37E09"/>
<path d="M10.3213 9.71817H9.35156V12.4939H10.3213V9.71817Z" fill="#F37E09"/>
<path d="M12.018 9.71817H11.0483V12.4939H12.018V9.71817Z" fill="#F37E09"/>
<path d="M13.7153 9.71817H12.7456V12.4939H13.7153V9.71817Z" fill="#F37E09"/>
<path d="M10.2212 18.9818V13.6273C10.2212 13.5061 10.1212 13.4061 10 13.4061C9.87881 13.4061 9.77881 13.5061 9.77881 13.6273V18.9818H10.2212Z" fill="#F37E09"/>
<path d="M10.4216 16.5848H9.53371C9.4125 16.5848 9.3125 16.4848 9.3125 16.3636C9.3125 16.2424 9.4125 16.1424 9.53371 16.1424H10.4216C10.5428 16.1424 10.6428 16.2424 10.6428 16.3636C10.6458 16.4848 10.5458 16.5848 10.4216 16.5848Z" fill="#F37E09"/>
</svg>
