<svg width="19" height="19" viewBox="0 0 19 19" fill="none" xmlns="http://www.w3.org/2000/svg">
<path d="M9.31196 4.72625C7.60258 4.72625 5.89383 4.52937 4.23508 4.14062C4.06696 4.10125 3.96258 3.93375 4.00196 3.765C4.04133 3.5975 4.20508 3.49312 4.37821 3.53187C7.99883 4.38062 11.847 4.27375 15.427 3.22062C15.5957 3.17312 15.767 3.26625 15.8151 3.43187C15.8638 3.59812 15.7695 3.77125 15.6038 3.82C13.5595 4.42125 11.4426 4.72625 9.31196 4.72625Z" fill="#F37E09"/>
<path d="M15.5148 15.4762C15.4855 15.4762 15.4561 15.4719 15.4261 15.4631C11.4517 14.2937 7.17172 14.2937 3.19735 15.4631C3.02922 15.51 2.85735 15.4175 2.80922 15.2519C2.76047 15.0856 2.85485 14.9125 3.02047 14.8637C7.1111 13.66 11.513 13.66 15.6036 14.8637C15.7692 14.9125 15.8636 15.0856 15.8148 15.2519C15.7748 15.3887 15.6498 15.4762 15.5148 15.4762Z" fill="#F37E09"/>
<path d="M8.93008 18.1494C8.86883 18.1494 8.8082 18.1319 8.75383 18.095C5.83695 16.1044 4.0957 12.8312 4.0957 9.33936C4.0957 6.50999 5.20883 3.84686 7.23133 1.84061C7.35445 1.71749 7.55258 1.71999 7.6732 1.84186C7.79508 1.96436 7.79383 2.16249 7.67195 2.28374C5.76883 4.17186 4.7207 6.67749 4.7207 9.33936C4.7207 12.6244 6.36008 15.705 9.10695 17.5787C9.24945 17.6756 9.2857 17.8706 9.18883 18.0131C9.12758 18.1019 9.02945 18.1494 8.93008 18.1494Z" fill="#F37E09"/>
<path d="M9.72057 18.1494C9.6212 18.1494 9.52307 18.1019 9.46245 18.0131C9.36557 17.87 9.40182 17.6756 9.54432 17.5787C12.2912 15.705 13.9306 12.6244 13.9306 9.33936C13.9306 6.05436 12.2912 2.97374 9.54432 1.09999C9.40182 1.00311 9.36557 0.808115 9.46245 0.665615C9.55995 0.523115 9.75495 0.488115 9.89682 0.58374C12.8137 2.57436 14.5549 5.84749 14.5549 9.33936C14.5549 12.8312 12.8137 16.1044 9.89682 18.095C9.84307 18.1312 9.78182 18.1494 9.72057 18.1494Z" fill="#F37E09"/>
<path d="M9.31201 18.0562C9.13951 18.0562 8.99951 17.9162 8.99951 17.7437V0.934998C8.99951 0.762498 9.13951 0.622498 9.31201 0.622498C9.48451 0.622498 9.62451 0.762498 9.62451 0.934998V17.7437C9.62451 17.9169 9.48451 18.0562 9.31201 18.0562Z" fill="#F37E09"/>
<path d="M18.029 9.65187H1.84521C1.67271 9.65187 1.53271 9.51187 1.53271 9.33937C1.53271 9.16687 1.67271 9.02687 1.84521 9.02687H18.0296C18.2021 9.02687 18.3421 9.16687 18.3421 9.33937C18.3421 9.51187 18.2021 9.65187 18.029 9.65187Z" fill="#F37E09"/>
<path d="M9.31201 18.4019C4.31514 18.4019 0.249512 14.3362 0.249512 9.33937C0.249512 7.13875 1.04826 5.015 2.49951 3.36125C2.61326 3.23125 2.81014 3.21875 2.94076 3.3325C3.07014 3.44625 3.08264 3.64375 2.96951 3.77375C1.61889 5.31312 0.874512 7.29 0.874512 9.33937C0.874512 13.9919 4.65951 17.7769 9.31201 17.7769C13.9645 17.7769 17.7495 13.9919 17.7495 9.33937C17.7495 4.68687 13.9645 0.901871 9.31201 0.901871C7.38826 0.901871 5.57701 1.53187 4.07514 2.72375C3.94014 2.83125 3.74389 2.80937 3.63639 2.67312C3.52889 2.53812 3.55139 2.34187 3.68701 2.23437C5.30014 0.953746 7.24514 0.276871 9.31201 0.276871C14.3089 0.276871 18.3745 4.34249 18.3745 9.33937C18.3745 14.3362 14.3089 18.4019 9.31201 18.4019Z" fill="#F37E09"/>
</svg>
