<svg width="20" height="20" viewBox="0 0 20 20" fill="none" xmlns="http://www.w3.org/2000/svg">
<path d="M8.75 0C10.8178 0 12.5 1.68219 12.5 3.75V13.125C12.5 14.5031 11.3781 15.625 10 15.625C8.62188 15.625 7.5 14.5031 7.5 13.125V5.625C7.5 5.27953 7.77953 5 8.125 5C8.47047 5 8.75 5.27953 8.75 5.625V13.125C8.75 13.8147 9.31031 14.375 10 14.375C10.6897 14.375 11.25 13.8147 11.25 13.125V3.75C11.25 2.37188 10.1281 1.25 8.75 1.25C7.37188 1.25 6.25 2.37188 6.25 3.75V15C6.25 17.0678 7.93219 18.75 10 18.75C12.0678 18.75 13.75 17.0678 13.75 15V5.625C13.75 5.27953 14.0295 5 14.375 5C14.7205 5 15 5.27953 15 5.625V15C15 17.7575 12.7575 20 10 20C7.2425 20 5 17.7575 5 15V3.75C5 1.68219 6.68219 0 8.75 0Z" fill="#F37E09"/>
</svg>
