<svg width="20" height="20" viewBox="0 0 20 20" fill="none" xmlns="http://www.w3.org/2000/svg">
<path d="M19.64 5.26656H19.6221C19.2803 5.26875 19.2275 4.97094 19.2215 4.83344V2.67437C19.2215 2.44437 19.0343 2.2575 18.8046 2.2575H12.6321C11.0831 2.2575 10.5056 2.83125 10.3621 3.01187L10.3228 3.06625L10.3225 3.06687L10.2003 3.23437C10.2 3.23437 10.2 3.23437 10.2 3.23437C10.0362 3.45969 9.8934 3.36344 9.82465 3.29L9.5909 2.99844L9.47559 2.85937C9.28121 2.65531 8.77496 2.25719 7.77184 2.25719H1.1959C0.965586 2.25719 0.778711 2.44406 0.778711 2.67406V4.80594C0.778711 5.17875 0.576211 5.25406 0.451836 5.26625H0.359023C0.257773 5.27219 0.0224609 5.33125 0.0224609 5.76469V15.9225C0.0224609 16.1719 0.224648 16.3737 0.473711 16.3737H6.47527C8.38996 16.3737 9.22434 17.0962 9.47465 17.3728L9.61746 17.5497H9.61777C9.61777 17.5497 10.0006 17.9825 10.404 17.5497L10.4881 17.4513V17.4522L10.489 17.4513L10.5956 17.3263C10.5987 17.3225 10.6246 17.2937 10.6615 17.2556C10.9815 16.9447 11.78 16.3737 13.3412 16.3737H19.5262C19.7756 16.3737 19.9771 16.1719 19.9771 15.9225V5.66625C19.9775 5.29937 19.7109 5.26844 19.64 5.26656ZM18.2915 14.3291C18.2915 14.5291 18.1243 14.6912 17.9162 14.6912H12.8278C11.0168 14.6912 10.3593 15.5087 10.3593 15.5087L10.2759 15.6206L10.2368 15.6753C10.2365 15.6753 10.2365 15.6753 10.2365 15.6753C10.0637 15.9097 9.80996 15.6772 9.80871 15.6753L9.69152 15.5291C9.60465 15.425 8.93934 14.6909 7.32965 14.6909H2.08277C1.87559 14.6909 1.7084 14.5284 1.7084 14.3287V3.50375C1.7084 3.30375 1.8759 3.14219 2.08277 3.14219H6.1559C9.1859 3.14219 9.47277 4.86312 9.49246 5.36281V12.8916C9.49246 13.4387 9.75309 13.5409 9.90027 13.5559H10.1193C10.269 13.5409 10.5075 13.4519 10.5075 13.0256V5.26625H10.5046C10.5278 4.64031 10.7715 3.14219 12.594 3.14219H17.9162C18.1243 3.14219 18.2915 3.30375 18.2915 3.50375V14.3291Z" fill="#F37E09"/>
</svg>
