<svg width="20" height="20" viewBox="0 0 20 20" fill="none" xmlns="http://www.w3.org/2000/svg">
<path d="M1.61279 7.74193H11.9354V3.54839H1.61279V7.74193ZM2.25795 4.19355H11.2902V7.09677H2.25795V4.19355Z" fill="#F37E09"/>
<path d="M20 9.67742V0H5.80645V2.25806H0V20H13.5484V18.4855C14.191 19.3997 15.2516 20 16.4516 20C18.4081 20 20 18.4081 20 16.4516C20 14.4952 18.4081 12.9032 16.4516 12.9032C15.2516 12.9032 14.191 13.5035 13.5484 14.4177V9.67742H20ZM6.45161 0.645161H19.3548V9.03226H13.5484V8.32645C15.2226 8.02129 16.4516 6.57161 16.4516 4.83871C16.4516 2.88226 14.8597 1.29032 12.9032 1.29032C11.9916 1.29032 11.1368 1.63516 10.4758 2.25806H6.45161V0.645161ZM11.5765 2.25806C11.9823 2.04839 12.4335 1.93548 12.9032 1.93548C14.5039 1.93548 15.8065 3.23774 15.8065 4.83871C15.8065 6.21581 14.8574 7.37323 13.5484 7.66742V2.25806H11.5765ZM16.4516 13.5484C18.0523 13.5484 19.3548 14.8506 19.3548 16.4516C19.3548 18.0526 18.0523 19.3548 16.4516 19.3548C14.851 19.3548 13.5484 18.0526 13.5484 16.4516C13.5484 14.8506 14.851 13.5484 16.4516 13.5484ZM12.9032 19.3548H0.645161V2.90323H12.9032V19.3548Z" fill="#F37E09"/>
<path d="M1.61279 13.2258H6.12892V8.70968H1.61279V13.2258ZM2.25795 9.35484H5.48376V12.5806H2.25795V9.35484Z" fill="#F37E09"/>
<path d="M7.41943 13.2258H11.9356V8.70968H7.41943V13.2258ZM8.06459 9.35484H11.2904V12.5806H8.06459V9.35484Z" fill="#F37E09"/>
<path d="M7.41943 18.3871H11.9356V13.871H7.41943V18.3871ZM8.06459 14.5161H11.2904V17.7419H8.06459V14.5161Z" fill="#F37E09"/>
<path d="M4.19364 10H3.54848V10.6452H2.90332V11.2903H3.54848V11.9355H4.19364V11.2903H4.8388V10.6452H4.19364V10Z" fill="#F37E09"/>
<path d="M1.61279 18.3871H6.12892V13.871H1.61279V18.3871ZM2.25795 14.5161H5.48376V17.7419H2.25795V14.5161Z" fill="#F37E09"/>
<path d="M4.32688 15.2168L3.87075 15.6729L3.41463 15.2168L2.9585 15.6729L3.41463 16.129L2.9585 16.5852L3.41463 17.0413L3.87075 16.5852L4.32688 17.0413L4.78301 16.5852L4.32688 16.129L4.78301 15.6729L4.32688 15.2168Z" fill="#F37E09"/>
<path d="M10.645 10.6452H8.70947V11.2903H10.645V10.6452Z" fill="#F37E09"/>
<path d="M10.645 15.1613H8.70947V15.8065H10.645V15.1613Z" fill="#F37E09"/>
<path d="M10.645 16.4516H8.70947V17.0968H10.645V16.4516Z" fill="#F37E09"/>
<path d="M17.4193 17.7419H15.4839C15.3058 17.7419 15.1613 17.5974 15.1613 17.4194H14.5161C14.5161 17.9529 14.9503 18.3871 15.4839 18.3871H16.129V18.7097H16.7742V18.3871H17.4193C17.9529 18.3871 18.3871 17.9529 18.3871 17.4194V17.0968C18.3871 16.5632 17.9529 16.129 17.4193 16.129H15.4839C15.3058 16.129 15.1613 15.9845 15.1613 15.8065V15.4839C15.1613 15.3058 15.3061 15.1613 15.4839 15.1613H17.4193C17.5974 15.1613 17.7419 15.3058 17.7419 15.4839H18.3871C18.3871 14.9503 17.9529 14.5161 17.4193 14.5161H16.7742V14.1935H16.129V14.5161H15.4839C14.9503 14.5161 14.5161 14.9503 14.5161 15.4839V15.8065C14.5161 16.34 14.9503 16.7742 15.4839 16.7742H17.4193C17.5974 16.7742 17.7419 16.9187 17.7419 17.0968V17.4194C17.7419 17.5974 17.5971 17.7419 17.4193 17.7419Z" fill="#F37E09"/>
</svg>
