<svg width="20" height="20" viewBox="0 0 20 20" fill="none" xmlns="http://www.w3.org/2000/svg">
<path d="M17.053 12.5594C16.5258 14.0125 15.5624 15.2673 14.2948 16.1519C13.0271 17.0365 11.517 17.5078 9.97119 17.5013C8.42537 17.4948 6.91932 17.0109 5.65912 16.1156C4.39892 15.2203 3.44614 13.9575 2.93115 12.5" stroke="#F37E09" stroke-linecap="round" stroke-linejoin="round"/>
<path d="M2.94678 7.43125C3.47242 5.97414 4.43634 4.71554 5.70612 3.82834C6.9759 2.94113 8.48923 2.46886 10.0382 2.4764C11.5872 2.48393 13.0959 2.9709 14.357 3.87041C15.6181 4.76993 16.5697 6.03785 17.0812 7.5" stroke="#F37E09" stroke-linecap="round" stroke-linejoin="round"/>
<path d="M13.225 12.6031C12.7406 15.4625 11.4781 17.5 10 17.5C8.52188 17.5 7.24375 15.4344 6.76562 12.5438" stroke="#F37E09" stroke-linecap="round" stroke-linejoin="round"/>
<path d="M6.75 7.5C7.21563 4.5625 8.49375 2.5 10 2.5C11.5063 2.5 12.7656 4.58125 13.2406 7.5" stroke="#F37E09" stroke-linecap="round" stroke-linejoin="round"/>
<path d="M18.125 7.5H1.875C1.52982 7.5 1.25 7.77982 1.25 8.125V11.875C1.25 12.2202 1.52982 12.5 1.875 12.5H18.125C18.4702 12.5 18.75 12.2202 18.75 11.875V8.125C18.75 7.77982 18.4702 7.5 18.125 7.5Z" stroke="#F37E09" stroke-linecap="round" stroke-linejoin="round"/>
<path d="M8.45947 9.2625L9.22822 10.9969L10.0001 9.625L10.772 10.9969L11.5407 9.2625" stroke="#F37E09" stroke-linecap="round" stroke-linejoin="round"/>
<path d="M4.08447 9.2625L4.85322 10.9969L5.6251 9.625L6.39697 10.9969L7.16572 9.2625" stroke="#F37E09" stroke-linecap="round" stroke-linejoin="round"/>
<path d="M12.8345 9.2625L13.6032 10.9969L14.3751 9.625L15.147 10.9969L15.9157 9.2625" stroke="#F37E09" stroke-linecap="round" stroke-linejoin="round"/>
</svg>
