<svg width="20" height="20" viewBox="0 0 20 20" fill="none" xmlns="http://www.w3.org/2000/svg">
<path d="M8.06611 5.3775L7.69799 5.74625L7.65861 5.78563C7.65861 5.78563 7.48893 6.12188 8.26049 6.16656V6.1675C8.26049 6.1675 8.6158 6.19813 8.96236 6.54406L9.81611 7.39844C10.128 7.71031 10.1367 8.035 10.1221 8.18094C10.0508 8.58281 9.86549 8.96813 9.55455 9.27844C9.24674 9.5875 8.86361 9.77094 8.46486 9.84219C8.2883 9.85906 7.95174 9.82844 7.57955 9.45563L6.93205 8.80781C6.52424 8.4 6.43736 7.87344 6.43736 7.87344L6.43643 7.87406C6.27861 7.15781 6.06236 7.38156 6.06236 7.38156L5.65361 7.78906C5.06143 8.38125 5.06143 9.34125 5.65361 9.93281L8.06486 12.345C8.5583 12.8384 9.30455 12.9144 9.88299 12.5869L9.88705 12.5919C9.88705 12.5919 10.418 12.2563 11.1327 12.9709L17.5642 19.4034C17.5642 19.4034 18.3458 20.1713 19.083 19.4341L19.6911 18.825C19.8974 18.5963 20.3327 17.9447 19.533 17.1453L13.3371 10.9466C12.5158 10.1253 12.913 9.52344 12.913 9.52344L12.9089 9.51938C13.1833 8.95469 13.0905 8.25844 12.6227 7.79L10.2111 5.3775C9.61893 4.78562 8.65861 4.78562 8.06611 5.3775ZM12.2652 8.75656C12.2652 8.75656 12.3708 8.91938 11.9799 9.93594C11.8517 10.3663 11.8536 10.5803 11.8711 10.6763C11.9067 10.7947 11.9689 10.9172 12.0874 11.0344L18.7614 17.7116C18.8808 17.8469 19.0564 18.1409 18.7436 18.4697L18.6883 18.5259C18.383 18.8303 18.1224 18.6228 18.0527 18.5547L11.4161 11.9169C10.9533 11.4544 10.4539 11.5975 10.4539 11.5975V11.5953C10.4195 11.6031 10.3867 11.5994 10.3533 11.6041C10.3483 11.6091 10.3455 11.6159 10.3383 11.6169C10.2289 11.6375 9.52924 11.9022 9.45611 11.9288C9.45205 11.9309 9.4483 11.9319 9.44424 11.9338L9.44236 11.935C9.16799 12.0416 8.84424 11.9853 8.62205 11.7631C8.32299 11.4641 8.32299 10.9794 8.62205 10.6803C8.6733 10.6291 8.73174 10.5906 8.79174 10.5569V10.5531C8.79174 10.5531 8.80049 10.5491 8.80361 10.5481C8.82049 10.5391 8.83705 10.5341 8.85393 10.5275C9.03955 10.4494 9.6258 10.1909 9.90111 9.91563L10.1421 9.67563C10.1421 9.67563 10.4164 9.38344 10.8061 8.59375C10.8211 8.55531 10.838 8.51938 10.8595 8.48313C10.8674 8.46625 10.8755 8.45281 10.8833 8.43531C10.8861 8.43719 10.8883 8.43875 10.8921 8.43969C10.9167 8.40469 10.9355 8.36719 10.9671 8.335C11.2671 8.03594 11.7517 8.03594 12.0508 8.335C12.1692 8.45406 12.2396 8.6025 12.263 8.75656H12.2652Z" fill="#F37E09"/>
<path d="M19.1922 8.12688H18.21C17.44 8.12688 17.2456 7.41219 17.2456 7.41219C17.2456 7.41219 17.2406 7.41313 17.2387 7.41407C17.1244 7.08438 16.994 6.76157 16.8381 6.45282C16.8381 6.45188 16.8381 6.45188 16.8372 6.45094C16.5775 5.87938 17.0644 5.39282 17.0909 5.36657L17.7178 4.73875C17.939 4.51813 17.939 4.15907 17.7178 3.93782L15.87 2.09C15.6481 1.86875 15.29 1.86907 15.0687 2.09032L14.6147 2.54438C13.9044 3.25938 13.2381 2.91375 13.2381 2.91375L13.2362 2.91563C12.9809 2.79344 12.7194 2.68282 12.4506 2.58688C12.4378 2.58157 12.429 2.57594 12.4162 2.57032C11.8222 2.32719 11.744 1.71782 11.7359 1.47125V0.812504C11.7359 0.499691 11.4822 0.245941 11.1697 0.245941H8.45029C8.13748 0.245941 7.88373 0.499691 7.88373 0.812504V1.63219C7.88373 2.45188 7.18998 2.57657 7.18998 2.57657L7.19404 2.58063C6.89404 2.6875 6.59998 2.80688 6.31654 2.94719C6.31154 2.94938 6.30873 2.94844 6.30373 2.95063C5.73811 3.20094 5.42529 2.95532 5.34529 2.87844L5.32654 2.85907C5.32654 2.85875 5.32373 2.85563 5.32373 2.85563H5.32279L4.55686 2.08782C4.33467 1.86657 3.97654 1.86657 3.75529 2.08719L1.90561 3.93407C1.68436 4.15532 1.68373 4.51407 1.90561 4.73532L2.51936 5.35032C2.51936 5.35032 3.05154 5.86375 2.78779 6.44C2.78779 6.44032 2.78779 6.44032 2.78779 6.44094C2.63467 6.74094 2.50654 7.05532 2.39311 7.37625C2.38529 7.39344 2.37717 7.40594 2.36936 7.425C2.13467 8.00063 1.69717 8.11 1.46342 8.12688H0.56998C0.257168 8.12688 0.00341797 8.38063 0.00341797 8.69313V11.3069C0.00341797 11.6197 0.257168 11.8731 0.56998 11.8731H1.58654C2.16186 11.8731 2.31404 12.4041 2.31404 12.4041C2.31404 12.4041 2.31811 12.3944 2.31998 12.3894C2.43842 12.7556 2.57279 13.1147 2.73936 13.4553L2.73654 13.4563C2.73654 13.4563 3.09561 14.0663 2.69311 14.4688V14.47L1.90248 15.2594C1.68123 15.4806 1.68123 15.8406 1.90248 16.0606L3.74998 17.9094C3.97186 18.1303 4.33029 18.1303 4.55123 17.9094L5.26186 17.1988L5.26373 17.1969L5.29529 17.1663C5.39279 17.0734 5.73561 16.8209 6.39561 17.0931C6.40248 17.0963 6.40654 17.0972 6.41342 17.0994C6.66498 17.2188 6.92467 17.3272 7.18998 17.4209L7.18717 17.4241C7.18717 17.4241 7.88311 17.6313 7.88311 18.33V19.1875C7.88311 19.5006 8.13686 19.7541 8.44967 19.7541H11.169C11.4819 19.7541 11.7353 19.5003 11.7353 19.1875V18.2478C11.7481 18.0406 11.84 17.6497 12.3278 17.4584C12.3465 17.4506 12.3584 17.4434 12.3734 17.4369C12.5619 17.3716 12.7425 17.2916 12.9253 17.2138C13.3644 16.9691 12.9569 16.4716 12.9569 16.4716L12.8137 16.3016C12.429 15.8438 11.8109 16.1278 11.8109 16.1278L11.81 16.1238C11.7565 16.1416 11.7053 16.1622 11.6509 16.1791C11.634 16.1853 11.6231 16.1919 11.6037 16.1997C10.7597 16.5106 10.7519 17.1522 10.7519 17.1522V17.9053C10.74 18.5459 10.2297 18.6584 9.96498 18.6753H9.65936C9.00186 18.6881 8.88467 18.2863 8.86779 18.0722V17.2056C8.86779 16.4091 7.97842 16.1891 7.97842 16.1891L7.98154 16.185C7.49967 16.0428 7.04404 15.8403 6.61654 15.5966C6.59873 15.5888 6.58404 15.5847 6.56498 15.575C5.84436 15.2138 5.30842 15.7231 5.30842 15.7231L4.69654 16.335C4.26904 16.7603 3.95342 16.5622 3.83686 16.4566L3.78748 16.4072L3.78561 16.4044L3.28311 15.9019C3.28217 15.9009 3.28217 15.9009 3.28123 15.9C2.88748 15.5072 3.39967 14.9672 3.46779 14.8991L4.06404 14.3031C4.06498 14.3031 4.06498 14.3009 4.06498 14.3009C4.52498 13.8406 4.16373 13.125 4.16373 13.125C4.16373 13.125 4.16873 13.1241 4.16967 13.1241C3.93967 12.7066 3.75029 12.2653 3.61498 11.7984C3.61092 11.7856 3.60592 11.7778 3.60123 11.765C3.29811 10.9281 2.53436 10.9419 2.51936 10.9419L1.93904 10.9438C1.26092 10.945 1.13842 10.5038 1.11967 10.2719L1.11873 9.80375C1.12248 9.61125 1.19279 9.06532 1.87873 9.05938C1.87967 9.05938 1.87967 9.05938 1.87967 9.05938L2.62279 9.05657C2.62279 9.05657 3.32248 9.08907 3.57123 8.34282C3.57529 8.33282 3.57998 8.32813 3.58311 8.31907C3.73217 7.76938 3.94748 7.24719 4.22654 6.76688V6.76657C4.58092 6.0525 4.07467 5.51782 4.00842 5.45282L3.50311 4.9475C3.50311 4.9475 3.50311 4.9475 3.50217 4.94657C3.01467 4.45875 3.34811 4.03625 3.46467 3.91563L3.72842 3.6525C3.72842 3.6525 4.28404 3.06438 4.87248 3.6525C4.87342 3.6525 4.87342 3.65282 4.87342 3.65313L5.44779 4.2275C5.55623 4.33063 5.99842 4.68969 6.63217 4.38157C6.63529 4.38063 6.63623 4.38125 6.63811 4.37969C7.04592 4.14875 7.48498 3.96719 7.94186 3.82844C7.95373 3.82282 7.96061 3.81688 7.97436 3.81157C8.70967 3.52219 8.84686 3.06844 8.86748 2.83438V1.97657C8.87123 1.83282 8.92654 1.26813 9.58592 1.26813H9.99842C9.99842 1.26813 10.7503 1.2425 10.7503 2.08063V2.72844C10.7544 2.91313 10.8187 3.52813 11.5281 3.77813C11.529 3.77844 11.529 3.77907 11.5312 3.77938C11.9606 3.89844 12.3703 4.06438 12.759 4.265L12.7631 4.26157C12.7631 4.26157 13.6484 4.81094 14.3169 4.14313L14.764 3.69625C14.7847 3.67563 15.39 3.09 15.8419 3.54219C15.8428 3.54282 15.8437 3.54313 15.8437 3.54407L16.214 3.91407C16.214 3.91407 16.6634 4.46094 16.0978 5.02657L15.5972 5.52782C15.5972 5.52782 15.075 6.06219 15.454 6.87313C15.4606 6.88688 15.4606 6.89594 15.4669 6.90907C15.6978 7.33 15.8803 7.78125 16.0147 8.2525C16.0156 8.25219 16.0206 8.24813 16.0206 8.24813C16.0206 8.24813 16.1828 9.06157 16.9081 9.05907L17.6119 9.05657H17.6306H17.6625C17.6831 9.05563 18.5222 9.04219 18.5244 9.83438L18.5262 10.1678V10.1691V10.2509C18.5194 10.4475 18.4256 10.9378 17.6459 10.9409L16.9709 10.9428C16.4437 10.9478 16.1812 11.38 16.0659 11.6544C16.0212 11.775 15.9187 12.1647 16.2909 12.5309L16.3869 12.6259C16.3887 12.6269 16.39 12.6278 16.3919 12.63C16.9475 13.2259 17.3456 12.3909 17.3456 12.3909C17.5972 11.9713 17.9662 11.8875 18.1637 11.8738H19.1931C19.5059 11.8738 19.7597 11.62 19.7597 11.3075V8.69375C19.759 8.38032 19.505 8.12688 19.1922 8.12688Z" fill="#F37E09"/>
</svg>
