<svg width="20" height="20" viewBox="0 0 20 20" fill="none" xmlns="http://www.w3.org/2000/svg">
<path d="M16.0417 11.5L15.7855 11.25C15.0709 10.5562 14.2626 9.76874 14.2417 8.72916C14.2464 8.30931 14.2904 7.89082 14.373 7.47916C14.4381 7.13496 14.4819 6.78708 14.5042 6.43749C14.5384 5.61626 14.3793 4.79849 14.0397 4.04999C13.4147 2.68124 12.2188 1.93541 10.498 1.83333C7.51674 1.66666 4.12299 2.93749 3.23341 6.19374C2.98471 7.16289 2.93123 8.17182 3.07608 9.16182C3.22093 10.1518 3.56123 11.1031 4.07716 11.9604C4.31526 12.3407 4.58496 12.7003 4.88341 13.0354C5.03966 13.2208 5.20216 13.4125 5.35008 13.6083C5.72784 14.0842 6.05397 14.5989 6.32299 15.1437C6.49115 15.5573 6.72006 15.9435 7.00216 16.2896C7.10458 16.4059 7.2168 16.5133 7.33758 16.6104C8.09174 17.2167 9.08966 17.4292 9.96674 17.5812C10.627 17.7071 11.2968 17.7768 11.9688 17.7896C12.4952 17.8034 13.0195 17.7186 13.5147 17.5396C13.7115 17.4563 13.8789 17.3159 13.9951 17.1365C14.1114 16.9571 14.1711 16.747 14.1667 16.5333C14.1667 15.9345 14.3141 15.345 14.5959 14.8167L14.6772 14.6625L13.9709 14.3062C13.9647 14.3035 13.9596 14.2987 13.9566 14.2926C13.9535 14.2865 13.9527 14.2795 13.9542 14.2729C13.9546 14.266 13.9572 14.2593 13.9617 14.254C13.9663 14.2487 13.9724 14.2451 13.9792 14.2437L14.6042 14.0937C14.6612 14.0799 14.714 14.0526 14.7582 14.0142C14.8024 13.9758 14.8368 13.9273 14.8584 13.8729C14.8816 13.8199 14.8916 13.7622 14.8876 13.7045C14.8836 13.6468 14.8658 13.5909 14.8355 13.5417C14.7981 13.4949 14.7723 13.4399 14.7603 13.3812C14.7484 13.3225 14.7506 13.2618 14.7667 13.2042C14.823 13.0542 15.0292 12.925 15.3626 12.8312C15.6683 12.7465 15.9282 12.5443 16.0855 12.2687C16.2938 11.8896 16.1709 11.6417 16.0417 11.5ZM15.9126 12.1667C15.7834 12.3944 15.5691 12.5615 15.3167 12.6312C14.9022 12.7458 14.6542 12.9167 14.5834 13.125C14.5548 13.2126 14.5477 13.3059 14.5626 13.3968C14.5774 13.4878 14.6139 13.5739 14.6688 13.6479C14.6828 13.6689 14.6915 13.6929 14.694 13.718C14.6965 13.743 14.6929 13.7683 14.6834 13.7917C14.6736 13.8154 14.6582 13.8364 14.6387 13.8531C14.6191 13.8698 14.5959 13.8815 14.5709 13.8875L13.9459 14.0375C13.898 14.0493 13.8549 14.0754 13.8223 14.1124C13.7897 14.1493 13.7692 14.1954 13.7635 14.2444C13.7578 14.2934 13.7673 14.3429 13.7906 14.3864C13.8139 14.4298 13.8499 14.4651 13.8938 14.4875L14.4105 14.7479C14.1167 15.3041 13.9616 15.9231 13.9584 16.5521C13.9595 16.7215 13.9102 16.8875 13.8167 17.0288C13.7232 17.1702 13.5898 17.2805 13.4334 17.3458C12.4626 17.7292 11.1417 17.5771 9.99591 17.3771C9.14591 17.2292 8.17716 17.0229 7.46258 16.4479C7.35081 16.3591 7.24758 16.2601 7.15424 16.1521C6.88429 15.8212 6.66521 15.4518 6.50424 15.0562C6.22945 14.4983 5.89634 13.9711 5.51049 13.4833C5.35841 13.275 5.19591 13.0896 5.03758 12.9021C4.74698 12.577 4.4836 12.2286 4.25008 11.8604C3.74909 11.026 3.41907 10.1002 3.27922 9.13703C3.13938 8.17384 3.1925 7.19246 3.43549 6.24999C4.29174 3.10624 7.58966 1.87499 10.4772 2.04583C12.123 2.14374 13.2584 2.84791 13.8501 4.14166C14.1774 4.85966 14.3302 5.64496 14.2959 6.43333C14.2741 6.77595 14.2309 7.11689 14.1667 7.45416C14.0822 7.88104 14.0376 8.31485 14.0334 8.74999C14.0563 9.87499 14.898 10.6937 15.6397 11.4167L15.8834 11.6542C15.9334 11.6958 16.0813 11.8458 15.9022 12.1667H15.9126Z" fill="#F37E09"/>
<path d="M12.5629 7.16042L12.7087 7.96042C12.8457 7.96946 12.9742 8.0304 13.0678 8.13083C13.1615 8.23125 13.2133 8.3636 13.2128 8.50092C13.2122 8.63823 13.1594 8.77018 13.0649 8.86988C12.9705 8.96958 12.8416 9.02952 12.7046 9.0375C12.587 9.03767 12.4727 8.99884 12.3796 8.92709L10.8796 9.76042C10.9108 9.83597 10.9245 9.91764 10.9195 9.99925C10.9146 10.0809 10.8912 10.1603 10.8511 10.2315C10.8109 10.3028 10.7551 10.3639 10.6879 10.4105C10.6206 10.457 10.5437 10.4876 10.4629 10.5L10.3441 11.3208C10.4654 11.3769 10.5617 11.4758 10.6145 11.5986C10.6672 11.7214 10.6728 11.8593 10.63 11.9859C10.5872 12.1125 10.4991 12.2188 10.3827 12.2844C10.2663 12.35 10.1298 12.3703 9.99932 12.3413C9.86887 12.3123 9.75375 12.2361 9.67607 12.1274C9.5984 12.0186 9.56365 11.885 9.57851 11.7522C9.59338 11.6194 9.6568 11.4968 9.7566 11.408C9.85639 11.3191 9.98551 11.2703 10.1191 11.2708H10.14L10.2546 10.4958C10.164 10.4755 10.0803 10.4322 10.0114 10.37C9.94245 10.3079 9.89073 10.229 9.8612 10.1411C9.83167 10.0531 9.82532 9.95903 9.84277 9.8679C9.86022 9.77676 9.90087 9.69167 9.9608 9.62084L9.58372 9.31459C9.47959 9.40351 9.35515 9.46541 9.22141 9.4948C9.08767 9.52419 8.94874 9.52017 8.81692 9.48309C8.6851 9.44602 8.56445 9.37703 8.46564 9.28224C8.36682 9.18744 8.29289 9.06975 8.25038 8.93959L7.61288 9.16459C7.58226 9.3428 7.48578 9.503 7.34257 9.6134C7.19936 9.7238 7.01988 9.77635 6.83974 9.76062C6.6596 9.74489 6.49196 9.66202 6.37005 9.52846C6.24815 9.39491 6.1809 9.22041 6.18163 9.03959C6.18064 8.96906 6.19048 8.8988 6.2108 8.83125L5.73997 8.49584H5.72955C5.59423 8.58516 5.43544 8.63229 5.2733 8.63125C5.16291 8.62893 5.05405 8.60488 4.95295 8.56049C4.85185 8.51609 4.76049 8.45222 4.68407 8.37252C4.60766 8.29281 4.54769 8.19884 4.50759 8.09596C4.4675 7.99308 4.44806 7.88331 4.45038 7.77292C4.45271 7.66253 4.47675 7.55367 4.52115 7.45257C4.56554 7.35147 4.62941 7.26011 4.70912 7.18369C4.78882 7.10728 4.88279 7.04731 4.98567 7.00721C5.08855 6.96712 5.19832 6.94768 5.30872 6.95L5.44205 6.35209C5.37461 6.31411 5.31613 6.26207 5.27057 6.19949C5.22502 6.13692 5.19346 6.06528 5.17804 5.98943C5.16262 5.91358 5.16369 5.83531 5.1812 5.75991C5.1987 5.68452 5.23221 5.61377 5.27947 5.55247C5.32673 5.49118 5.38662 5.44076 5.45508 5.40465C5.52354 5.36854 5.59896 5.34759 5.67624 5.3432C5.75351 5.33882 5.83083 5.35111 5.90293 5.37924C5.97504 5.40738 6.04025 5.45069 6.09413 5.50625L6.5108 5.325C6.49219 5.26284 6.48306 5.19822 6.48372 5.13334C6.48331 4.97473 6.53522 4.82041 6.63142 4.6943C6.72762 4.56819 6.86272 4.47733 7.0158 4.4358C7.16887 4.39427 7.33137 4.40438 7.47812 4.46458C7.62486 4.52477 7.74765 4.63169 7.82747 4.76875L8.50663 4.56042C8.5056 4.54585 8.5056 4.53123 8.50663 4.51667C8.50206 4.44313 8.51259 4.36943 8.53759 4.30012C8.56258 4.23081 8.60151 4.16735 8.65196 4.11365C8.70242 4.05996 8.76334 4.01717 8.83097 3.98791C8.89859 3.95866 8.97149 3.94357 9.04518 3.94357C9.11886 3.94357 9.19176 3.95866 9.25939 3.98791C9.32701 4.01717 9.38793 4.05996 9.43839 4.11365C9.48884 4.16735 9.52777 4.23081 9.55276 4.30012C9.57776 4.36943 9.58829 4.44313 9.58372 4.51667C9.58475 4.53332 9.58475 4.55002 9.58372 4.56667L10.3066 4.81459C10.3895 4.67645 10.5239 4.5769 10.6802 4.53783C10.8364 4.49876 11.0018 4.52337 11.14 4.60625C11.2781 4.68913 11.3777 4.82349 11.4167 4.97977C11.4558 5.13605 11.4312 5.30145 11.3483 5.43959L11.9858 6.09792C12.1267 6.02139 12.2922 6.00397 12.446 6.04949C12.5221 6.07203 12.593 6.10934 12.6547 6.15929C12.7164 6.20924 12.7677 6.27086 12.8056 6.34063C12.8435 6.41039 12.8673 6.48694 12.8756 6.56589C12.8839 6.64485 12.8766 6.72466 12.854 6.80079C12.8315 6.87691 12.7942 6.94785 12.7442 7.00956C12.6943 7.07127 12.6326 7.12253 12.5629 7.16042Z" fill="#F37E09"/>
</svg>
