<svg width="20" height="16" viewBox="0 0 20 16" fill="none" xmlns="http://www.w3.org/2000/svg">
<path d="M18.2231 15.3306H1.77686C0.785122 15.3306 0 14.5455 0 13.5537V1.77685C0 0.785119 0.785122 0 1.77686 0H18.2231C19.2149 0 20 0.785119 20 1.77685V13.5537C20 14.5455 19.2149 15.3306 18.2231 15.3306ZM1.77686 1.19833C1.44628 1.19833 1.19834 1.44628 1.19834 1.77685V13.5537C1.19834 13.8843 1.44628 14.1322 1.77686 14.1322H18.2231C18.5537 14.1322 18.8017 13.8843 18.8017 13.5537V1.77685C18.8017 1.44628 18.5537 1.19833 18.2231 1.19833H1.77686Z" fill="#F37E09"/>
<path d="M0.578613 2.39669H19.4216V5.90909H0.578613V2.39669Z" fill="#F37E09"/>
<path d="M2.35547 8.26445H2.93398V9.46279H2.35547V8.26445Z" fill="#F37E09"/>
<path d="M3.51221 8.26445H4.13204V9.46279H3.51221V8.26445Z" fill="#F37E09"/>
<path d="M4.71094 8.26445H5.28945V9.46279H4.71094V8.26445Z" fill="#F37E09"/>
<path d="M6.48779 8.26445H7.06631V9.46279H6.48779V8.26445Z" fill="#F37E09"/>
<path d="M7.64453 8.26445H8.22304V9.46279H7.64453V8.26445Z" fill="#F37E09"/>
<path d="M8.84277 8.26445H9.42129V9.46279H8.84277V8.26445Z" fill="#F37E09"/>
<path d="M10.5786 8.26445H11.1571V9.46279H10.5786V8.26445Z" fill="#F37E09"/>
<path d="M11.7769 8.26445H12.3554V9.46279H11.7769V8.26445Z" fill="#F37E09"/>
<path d="M12.9336 8.26445H13.5121V9.46279H12.9336V8.26445Z" fill="#F37E09"/>
<path d="M14.7109 8.26445H15.2895V9.46279H14.7109V8.26445Z" fill="#F37E09"/>
<path d="M15.8677 8.26445H16.4875V9.46279H15.8677V8.26445Z" fill="#F37E09"/>
<path d="M17.0659 8.26445H17.6444V9.46279H17.0659V8.26445Z" fill="#F37E09"/>
</svg>
