<svg width="20" height="19" viewBox="0 0 20 19" fill="none" xmlns="http://www.w3.org/2000/svg">
<path d="M10.0109 18.7908C9.95122 18.7908 9.89082 18.7747 9.83713 18.7425L4.14025 15.2984C4.03958 15.238 3.97852 15.1287 3.97852 15.0112V13.1073C3.97852 12.9221 4.12884 12.7718 4.31406 12.7718C4.49928 12.7718 4.64961 12.9221 4.64961 13.1073V14.822L10.0109 18.0633L15.373 14.822V13.1073C15.373 12.9221 15.5233 12.7718 15.7085 12.7718C15.8937 12.7718 16.044 12.9221 16.044 13.1073V15.0112C16.044 15.1287 15.983 15.2374 15.8823 15.2984L10.1848 18.7425C10.1311 18.7747 10.0707 18.7908 10.0109 18.7908Z" fill="#F37E09"/>
<path d="M6.02144 14.5005C5.95769 14.5005 5.89326 14.4824 5.83689 14.4448L0.151416 10.7041C0.0621607 10.6458 0.00578906 10.5471 0.000420339 10.4404C-0.00494838 10.333 0.0413568 10.2304 0.125243 10.1626L4.05649 6.98898C4.16789 6.9004 4.32358 6.88966 4.44438 6.9655L10.1768 10.533C10.2681 10.5894 10.3265 10.6867 10.3339 10.7941C10.3419 10.9014 10.2976 11.0055 10.2151 11.0746L6.23686 14.4213C6.17512 14.4743 6.09862 14.5005 6.02144 14.5005ZM0.904379 10.3961L5.99661 13.7475L9.42991 10.8592L4.29204 7.66142L0.904379 10.3961Z" fill="#F37E09"/>
<path d="M4.44496 7.53526L4.09062 6.9655L9.43049 3.64227L5.99719 0.753223L0.904289 4.10465L3.22223 5.97565C3.36652 6.09174 3.38934 6.30314 3.27257 6.44742C3.15714 6.59171 2.9444 6.6152 2.80079 6.49775L0.125153 4.33819C0.0412666 4.27108 -0.00436756 4.16773 0.000330072 4.06036C0.00569879 3.95365 0.0613993 3.855 0.151325 3.79662L5.8368 0.0552889C5.96095 -0.0265841 6.12336 -0.0165177 6.23744 0.0787771L10.2157 3.4255C10.2982 3.49463 10.3418 3.59932 10.3344 3.70602C10.3271 3.81339 10.268 3.91003 10.1774 3.96707L4.44496 7.53526Z" fill="#F37E09"/>
<path d="M13.978 14.5005C13.9008 14.5005 13.8243 14.4737 13.7619 14.422L9.78365 11.0753C9.70111 11.0061 9.65749 10.9014 9.66487 10.7947C9.67225 10.6874 9.73131 10.5907 9.8219 10.5337L15.5544 6.96551C15.6758 6.88967 15.8315 6.89974 15.9422 6.98899L19.8735 10.1626C19.9574 10.2304 20.003 10.333 19.9983 10.4404C19.9929 10.5471 19.9372 10.6458 19.8473 10.7042L14.1618 14.4455C14.1061 14.4824 14.0417 14.5005 13.978 14.5005ZM10.5695 10.8592L14.0028 13.7475L19.095 10.3961L15.7074 7.66076L10.5695 10.8592Z" fill="#F37E09"/>
<path d="M15.7321 7.58559C15.6711 7.58559 15.6093 7.56882 15.555 7.53459L9.82252 3.96775C9.73125 3.91138 9.67287 3.81407 9.66549 3.70669C9.65743 3.59932 9.70173 3.4953 9.78427 3.42618L13.7625 0.0787789C13.8759 -0.0165159 14.0383 -0.0259112 14.1631 0.0552907L19.8486 3.79662C19.9379 3.855 19.9942 3.95365 19.9996 4.06036C20.005 4.16773 19.9587 4.27041 19.8748 4.33819L15.9435 7.5111C15.8818 7.56076 15.8073 7.58559 15.7321 7.58559ZM10.5694 3.64227L15.7073 6.83934L19.095 4.10465L14.0027 0.753224L10.5694 3.64227Z" fill="#F37E09"/>
</svg>
