<svg width="20" height="12" viewBox="0 0 20 12" fill="none" xmlns="http://www.w3.org/2000/svg">
<path d="M3.41992 9.36475V1.7175C3.41992 1.4425 3.64492 1.2175 3.91992 1.2175H16.2547C16.5297 1.2175 16.7547 1.4425 16.7547 1.7175V9.36475" stroke="#F37E09" stroke-width="0.5" stroke-miterlimit="10"/>
<path d="M15.8927 2.092H4.25391V8.69525H15.8927V2.092Z" stroke="#F37E09" stroke-width="0.5" stroke-miterlimit="10"/>
<path d="M10.0351 1.76175C10.1025 1.76175 10.1571 1.70713 10.1571 1.63975C10.1571 1.57237 10.1025 1.51775 10.0351 1.51775C9.96771 1.51775 9.91309 1.57237 9.91309 1.63975C9.91309 1.70713 9.96771 1.76175 10.0351 1.76175Z" fill="#F37E09"/>
<path d="M15.3172 2.79383L14.5239 2.00105L14.3605 2.16461L15.1537 2.9574L15.3172 2.79383Z" fill="#F37E09"/>
<path d="M15.2447 3.54173L13.7144 2.01139L13.551 2.17473L15.0814 3.70507L15.2447 3.54173Z" fill="#F37E09"/>
<path d="M14.9458 4.4755L12.6025 2.133L12.767 1.97L15.1098 4.31225L14.9458 4.4755Z" fill="#F37E09"/>
<path d="M18.4101 10.0773C18.4101 10.2145 18.2976 10.3273 18.1601 10.3273H1.81836C1.68086 10.3273 1.56836 10.2145 1.56836 10.0773V9.729C1.56836 9.59125 1.68086 9.479 1.81836 9.479H18.1599C18.2974 9.479 18.4099 9.59125 18.4099 9.729V10.0773H18.4101Z" stroke="#F37E09" stroke-width="0.5" stroke-miterlimit="10"/>
<path d="M1.70996 10.288L2.50646 10.8278" stroke="#F37E09" stroke-width="0.5" stroke-miterlimit="10"/>
<path d="M2.4292 10.8408H17.4922" stroke="#F37E09" stroke-width="0.5" stroke-miterlimit="10"/>
<path d="M17.4019 10.8595L18.1989 10.3203" stroke="#F37E09" stroke-width="0.5" stroke-miterlimit="10"/>
</svg>
