<svg width="22" height="20" viewBox="0 0 22 20" fill="none" xmlns="http://www.w3.org/2000/svg">
<path d="M19.1503 3.02728H13.6327V4.46668H19.1503V3.02728Z" fill="#4C5057"/>
<path d="M19.1503 5.68182H14.7518V7.12122H19.1503V5.68182Z" fill="#4C5057"/>
<path d="M19.1505 8.33636H15.8745V9.77576H19.1505V8.33636Z" fill="#4C5057"/>
<path d="M19.1505 10.9909H15.8745V12.4303H19.1505V10.9909Z" fill="#4C5057"/>
<path d="M19.1505 13.6485H15.8745V15.0879H19.1505V13.6485Z" fill="#4C5057"/>
<path d="M19.1505 16.303H15.8745V17.7424H19.1505V16.303Z" fill="#4C5057"/>
<path d="M20.317 1.62121H19.2352V0.221212C19.2352 0.1 19.1233 0 18.9876 0H13.7922C13.6565 0 13.5446 0.1 13.5446 0.221212V1.62121H12.4628C12.3271 1.62121 12.2152 1.72121 12.2152 1.84242V5.76061H12.7137V2.06667H20.0728V18.9515H16.1593V19.1909H12.2186C12.2288 19.303 12.3339 19.3939 12.4628 19.3939H20.317C20.4527 19.3939 20.5646 19.2939 20.5646 19.1727V1.84242C20.568 1.72121 20.456 1.62121 20.317 1.62121ZM14.0397 0.445455H18.7401V1.62424H14.0397V0.445455Z" fill="#4C5057"/>
<path d="M8.3355 3.02728H2.81787V4.46668H8.3355V3.02728Z" fill="#4C5057"/>
<path d="M7.21637 5.68182H2.81787V7.12122H7.21637V5.68182Z" fill="#4C5057"/>
<path d="M6.09047 8.33636H2.81787V9.77576H6.09047V8.33636Z" fill="#4C5057"/>
<path d="M6.09047 10.9909H2.81787V12.4303H6.09047V10.9909Z" fill="#4C5057"/>
<path d="M6.09047 13.6485H2.81787V15.0879H6.09047V13.6485Z" fill="#4C5057"/>
<path d="M6.09047 16.303H2.81787V17.7424H6.09047V16.303Z" fill="#4C5057"/>
<path d="M9.75329 5.76061V1.84242C9.75329 1.72121 9.64137 1.62121 9.50572 1.62121H8.4239V0.221212C8.4239 0.1 8.31199 0 8.17634 0H2.98088C2.84523 0 2.73332 0.1 2.73332 0.221212V1.62121H1.65149C1.51584 1.62121 1.40393 1.72121 1.40393 1.84242V19.1697C1.40393 19.2909 1.51584 19.3909 1.65149 19.3909H9.50572C9.63459 19.3909 9.73972 19.3 9.7499 19.1848H7.23356V18.9455H1.89906V2.06667H9.25816V5.76364H9.75329V5.76061ZM3.22844 0.445455H7.92877V1.62424H3.22844V0.445455Z" fill="#4C5057"/>
<path d="M6.87072 7.46362H6.09412V19.1697H6.87072V7.46362Z" fill="#4C5057"/>
<path d="M15.8744 7.46362H15.1012V19.1697H15.8744V7.46362Z" fill="#4C5057"/>
<path d="M11.7338 16.4848C11.5981 16.4848 11.4862 16.3848 11.4862 16.2636V15.8151C11.4862 15.6939 11.5981 15.5939 11.7338 15.5939C11.8694 15.5939 11.9813 15.6939 11.9813 15.8151V16.2636C11.9847 16.3848 11.8728 16.4848 11.7338 16.4848Z" fill="#4C5057"/>
<path d="M10.2346 16.4848C10.099 16.4848 9.98706 16.3848 9.98706 16.2636V15.8151C9.98706 15.6939 10.099 15.5939 10.2346 15.5939C10.3703 15.5939 10.4822 15.6939 10.4822 15.8151V16.2636C10.4822 16.3848 10.3703 16.4848 10.2346 16.4848Z" fill="#4C5057"/>
<path d="M8.45089 8.20911H7.21985V11.3758H8.45089V8.20911Z" fill="#4C5057"/>
<path d="M10.5504 8.20911H9.31934V11.3758H10.5504V8.20911Z" fill="#4C5057"/>
<path d="M12.6493 8.20911H11.4182V11.3758H12.6493V8.20911Z" fill="#4C5057"/>
<path d="M14.7486 8.20911H13.5176V11.3758H14.7486V8.20911Z" fill="#4C5057"/>
<path d="M21.5889 18.9485H16.1221V7.46364C16.1221 7.34243 16.0102 7.24243 15.8746 7.24243H15.0301V5.81212C15.0301 5.69091 14.9182 5.59091 14.7826 5.59091H7.18609C7.05043 5.59091 6.93852 5.69091 6.93852 5.81212V7.24243H6.09409C5.95844 7.24243 5.84653 7.34243 5.84653 7.46364V18.9485H0.379766C0.244115 18.9485 0.132202 19.0485 0.132202 19.1697C0.132202 19.2909 0.244115 19.3939 0.379766 19.3939H21.5855C21.7212 19.3939 21.8331 19.2939 21.8331 19.1727C21.8331 19.0515 21.7245 18.9485 21.5889 18.9485ZM7.43704 6.03334H14.535V7.24243H7.43704V6.03334ZM13.4328 18.9485H11.2319V13.5394H13.4328V18.9485ZM13.9144 13.097H8.05426V12.5333H13.911V13.097H13.9144ZM8.53582 13.5394H10.7368V18.9485H8.53582V13.5394ZM13.9314 18.9485V13.5394H14.162C14.2976 13.5394 14.4095 13.4394 14.4095 13.3182V12.3091C14.4095 12.1879 14.2976 12.0879 14.162 12.0879H7.80669C7.67104 12.0879 7.55913 12.1879 7.55913 12.3091V13.3182C7.55913 13.4394 7.67104 13.5394 7.80669 13.5394H8.0373V18.9485H6.34165V7.68788H15.627V18.9515H13.9314V18.9485Z" fill="#4C5057"/>
</svg>
