<svg width="50" height="50" viewBox="0 0 50 50" fill="none" xmlns="http://www.w3.org/2000/svg">
<path d="M25 0C11.1926 0 0 11.1926 0 25C0 38.8074 11.1926 50 25 50C38.8074 50 50 38.8074 50 25C50 11.1926 38.8074 0 25 0ZM38.4359 34.4871C37.3689 35.1544 33.0335 35.3531 31.9839 34.5905C31.4081 34.1724 30.8817 33.6493 30.3818 33.151C30.0319 32.8027 29.635 32.6338 29.3344 32.2557C29.089 31.9465 28.9206 31.5815 28.6623 31.276C28.2263 30.7636 27.5552 30.3277 27.0245 30.9537C26.2251 31.8956 27.1501 33.7451 26.0843 34.4487C25.7268 34.6848 25.3661 34.753 24.9193 34.7195L23.9298 34.7644C23.3487 34.7758 22.428 34.7812 21.7667 34.662C21.029 34.5288 20.4197 34.1259 19.7525 33.8302C18.4862 33.2685 17.2801 32.5032 16.3621 31.4433C13.8637 28.5566 10.508 24.5868 9.2044 20.9575C8.93631 20.2118 8.2279 18.7348 8.89948 18.0952C9.81261 17.4318 14.2943 17.2449 14.9935 18.2707C15.2773 18.6877 15.4566 19.2976 15.6575 19.7704C15.9077 20.3596 16.0431 20.9147 16.4341 21.4363C16.7802 21.8988 17.0353 22.3641 17.3029 22.871C17.6034 23.4402 17.8872 23.9861 18.2528 24.5099C18.5009 24.8662 19.1567 25.5752 19.5711 25.6277C20.5828 25.7571 20.5199 23.2988 20.4446 22.6988C20.3726 22.1203 20.3542 21.5067 20.3732 20.9202C20.3894 20.4197 20.4344 19.7146 20.1381 19.3062C19.655 18.6401 18.5789 19.1383 18.4949 18.2431C18.6725 17.9891 18.6352 17.7638 19.8218 17.3727C20.7566 17.0656 21.3605 17.0754 21.9768 17.1247C23.2333 17.2254 24.5656 16.8853 25.7788 17.2926C26.9378 17.6831 26.7586 19.33 26.7196 20.3168C26.667 21.6638 26.7234 22.9788 26.7196 24.3463C26.7179 24.9686 26.693 25.5746 27.4523 25.5237C28.164 25.4766 28.2366 24.8776 28.5761 24.3837C29.0484 23.6948 29.4822 22.9961 29.9632 22.3099C30.6115 21.3821 30.8075 20.3396 31.4179 19.3891C31.6362 19.0495 31.8241 18.3259 32.1604 18.0573C32.415 17.8531 32.8986 17.9598 33.2068 17.9598H33.9396C34.5001 17.9598 35.072 17.9555 35.6483 17.9755C36.478 18.0042 37.4074 17.8136 38.2301 17.93C41.7802 18.431 33.7679 26.0204 34.1849 27.3754C34.473 28.3113 36.3009 29.3571 36.9606 30.1235C37.8363 31.1444 40.5324 33.1737 38.4359 34.4871Z" fill="#4C75A3"/>
</svg>
