<svg width="50" height="50" viewBox="0 0 50 50" fill="none" xmlns="http://www.w3.org/2000/svg">
<path d="M25 50C38.8071 50 50 38.8071 50 25C50 11.1929 38.8071 0 25 0C11.1929 0 0 11.1929 0 25C0 38.8071 11.1929 50 25 50Z" fill="#3B5998"/>
<path d="M34.375 50V31.25H40.625L42.1875 23.4375H34.375V20.3125C34.375 17.1875 35.9406 15.625 39.0625 15.625H42.1875V7.8125C40.625 7.8125 38.6875 7.8125 35.9375 7.8125C30.1953 7.8125 26.5625 12.3141 26.5625 18.75V23.4375H20.3125V31.25H26.5625V50H34.375Z" fill="white"/>
</svg>
