<svg width="30" height="30" viewBox="0 0 30 30" fill="none" xmlns="http://www.w3.org/2000/svg">
<circle cx="15" cy="15" r="15" fill="#F37E09"/>
<path d="M15 30C6.71548 30 0 23.2845 0 15C0 6.71548 6.71548 0 15 0C23.2845 0 30 6.71548 30 15C30 23.2845 23.2845 30 15 30ZM15 1.6318C7.6569 1.6318 1.6318 7.6569 1.6318 15C1.6318 22.3431 7.6569 28.3682 15 28.3682C22.3431 28.3682 28.3682 22.3431 28.3682 15C28.3682 7.6569 22.3431 1.6318 15 1.6318Z" fill="#F7F7F7"/>
<path d="M6.2133 25.8577L4.70703 25.1674C5.14636 24.1004 6.52711 23.5356 8.09615 22.8452C9.60243 22.1548 11.4853 21.3389 11.4853 20.3347V18.954C10.9204 18.5146 10.0418 17.5105 9.91623 16.0669C9.4769 15.6276 8.78653 14.8117 8.78653 13.8075C8.78653 13.1799 9.03757 12.6778 9.22586 12.364C9.10034 11.6736 8.84929 10.2929 8.84929 9.22594C8.84929 5.77406 11.2342 3.51465 14.9999 3.51465C16.0669 3.51465 17.3849 3.82844 18.0752 4.58158C19.7698 4.89539 21.1505 6.90376 21.1505 9.22594C21.1505 10.7322 20.8995 11.9875 20.7112 12.5523C20.8995 12.8661 21.0878 13.3054 21.0878 13.8075C21.0878 15 20.5229 15.7531 19.9581 16.1297C19.8326 17.5732 19.0167 18.5146 18.5146 18.954V20.3347C18.5146 21.2134 20.0836 21.7782 21.5271 22.3431C23.2217 22.9707 24.979 23.5983 25.5439 25.0418L23.9748 25.6067C23.7238 24.8536 22.2175 24.3515 20.9623 23.8494C19.0167 23.159 16.82 22.3431 16.82 20.3347V18.0753L17.1966 17.8243C17.2593 17.8243 18.3263 17.0711 18.3263 15.6276V15.0628L18.8284 14.8745C18.8911 14.8117 19.3932 14.5607 19.3932 13.8075C19.3932 13.5565 19.2049 13.3054 19.1422 13.2427L18.8284 12.8661L18.9539 12.4268C18.9539 12.4268 19.3932 11.046 19.3932 9.16318C19.3932 7.59414 18.5146 6.15062 17.5731 6.15062H17.0711L16.82 5.7113C16.6317 5.39749 15.8786 5.08369 14.8744 5.08369C12.0501 5.08369 10.3556 6.58995 10.3556 9.16318C10.3556 10.3556 10.7949 12.3013 10.7949 12.3013L10.9204 12.7406L10.6066 13.0544C10.6066 13.0544 10.3556 13.3682 10.3556 13.682C10.3556 14.1213 10.9204 14.6862 11.1715 14.9372L11.4853 15.1883V15.6276C11.4853 17.0084 12.6777 17.7615 12.6777 17.7615L13.0543 18.0126V20.272C13.0543 22.3431 10.7321 23.41 8.661 24.2887C7.78234 24.7908 6.46435 25.4184 6.2133 25.8577Z" fill="#F7F7F7"/>
</svg>
