<svg width="15" height="13" viewBox="0 0 15 13" fill="none" xmlns="http://www.w3.org/2000/svg">
<path d="M7.69388 12.9998C3.69148 12.9998 0.419678 10.0763 0.419678 6.4999C0.419678 2.92353 3.69148 0 7.69388 0C11.6963 0 14.9681 2.92353 14.9681 6.4999C14.9998 10.0763 11.728 12.9998 7.69388 12.9998ZM7.69388 0.68121C4.10443 0.68121 1.2138 3.29252 1.2138 6.47151C1.2138 9.6505 4.13619 12.2618 7.69388 12.2618C11.2516 12.2618 14.174 9.6505 14.174 6.47151C14.174 3.29252 11.2833 0.68121 7.69388 0.68121Z" fill="#6D7076"/>
<path d="M9.98055 9.82079L7.28052 7.40816V3.00867H8.13817V7.09594L10.5841 9.28149L9.98055 9.82079Z" fill="#6D7076"/>
</svg>
