<svg width="16" height="10" viewBox="0 0 16 10" fill="none" xmlns="http://www.w3.org/2000/svg">
<path d="M8 9.8125C2.9375 9.8125 0.65625 5.34375 0.5625 5.15625C0.5 5.03125 0.5 4.90625 0.5625 4.78125C0.65625 4.59375 2.9375 0.125 8 0.125C13.0625 0.125 15.3437 4.59375 15.4375 4.78125C15.5 4.90625 15.5 5.03125 15.4375 5.15625C15.3437 5.375 13.0625 9.8125 8 9.8125ZM1.40624 5C1.87499 5.8125 4.03125 9 8 9C11.9687 9 14.125 5.8125 14.5937 5C14.125 4.1875 11.9687 1.00001 8 1.00001C4.03125 1.00001 1.87499 4.1875 1.40624 5Z" fill="#6D7076"/>
<path d="M8 8.9375C5.8125 8.9375 4.0625 7.15625 4.0625 5C4.0625 2.84375 5.84375 1.0625 8 1.0625C10.1563 1.0625 11.9375 2.84375 11.9375 5C11.9375 7.15625 10.1875 8.9375 8 8.9375ZM8 1.875C6.28125 1.875 4.875 3.28125 4.875 5C4.875 6.71875 6.28125 8.125 8 8.125C9.71875 8.125 11.125 6.71875 11.125 5C11.125 3.28125 9.71875 1.875 8 1.875Z" fill="#6D7076"/>
<path d="M8 7.1875C6.8125 7.1875 5.8125 6.21875 5.8125 5C5.8125 4.78125 6 4.59375 6.21875 4.59375C6.4375 4.59375 6.625 4.78125 6.625 5C6.625 5.75 7.21875 6.34374 7.96875 6.34374C8.71875 6.34374 9.3125 5.75 9.3125 5C9.3125 4.25 8.71875 3.65625 7.96875 3.65625C7.75 3.65625 7.5625 3.46875 7.5625 3.25C7.5625 3.03125 7.75 2.84375 7.96875 2.84375C9.15625 2.84375 10.1562 3.8125 10.1562 5.03125C10.1562 6.25 9.1875 7.1875 8 7.1875Z" fill="#6D7076"/>
</svg>
