<svg width="20" height="20" viewBox="0 0 20 20" fill="none" xmlns="http://www.w3.org/2000/svg">
<path d="M10 14.8125C4.9375 14.8125 2.65625 10.3438 2.5625 10.1563C2.5 10.0313 2.5 9.90625 2.5625 9.78125C2.65625 9.59375 4.9375 5.125 10 5.125C15.0625 5.125 17.3437 9.59375 17.4375 9.78125C17.5 9.90625 17.5 10.0313 17.4375 10.1563C17.3437 10.375 15.0625 14.8125 10 14.8125ZM3.40624 10C3.87499 10.8125 6.03125 14 10 14C13.9687 14 16.125 10.8125 16.5937 10C16.125 9.1875 13.9687 6.00001 10 6.00001C6.03125 6.00001 3.87499 9.1875 3.40624 10Z" fill="#6D7076"/>
<path d="M10 13.9375C7.8125 13.9375 6.0625 12.1563 6.0625 10C6.0625 7.84375 7.84375 6.0625 10 6.0625C12.1563 6.0625 13.9375 7.84375 13.9375 10C13.9375 12.1563 12.1875 13.9375 10 13.9375ZM10 6.875C8.28125 6.875 6.875 8.28125 6.875 10C6.875 11.7188 8.28125 13.125 10 13.125C11.7188 13.125 13.125 11.7188 13.125 10C13.125 8.28125 11.7188 6.875 10 6.875Z" fill="#6D7076"/>
<path d="M10 12.1875C8.8125 12.1875 7.8125 11.2187 7.8125 10C7.8125 9.78125 8 9.59375 8.21875 9.59375C8.4375 9.59375 8.625 9.78125 8.625 10C8.625 10.75 9.21875 11.3437 9.96875 11.3437C10.7187 11.3437 11.3125 10.75 11.3125 10C11.3125 9.25 10.7187 8.65625 9.96875 8.65625C9.75 8.65625 9.5625 8.46875 9.5625 8.25C9.5625 8.03125 9.75 7.84375 9.96875 7.84375C11.1562 7.84375 12.1562 8.8125 12.1562 10.0312C12.1562 11.25 11.1875 12.1875 10 12.1875Z" fill="#6D7076"/>
<line x1="1.64645" y1="17.6464" x2="17.6464" y2="1.64645" stroke="#6D7076"/>
</svg>
