<svg width="50" height="50" viewBox="0 0 50 50" fill="none" xmlns="http://www.w3.org/2000/svg">
<path d="M25 50C38.8071 50 50 38.8071 50 25C50 11.1929 38.8071 0 25 0C11.1929 0 0 11.1929 0 25C0 38.8071 11.1929 50 25 50Z" fill="#F99400"/>
<path fill-rule="evenodd" clip-rule="evenodd" d="M22.6241 30.1422C21.7224 29.9328 20.8819 29.63 20.083 29.2189C19.7969 29.0711 19.5152 28.9128 19.2419 28.7428C18.4358 28.2394 18.1852 27.2011 18.6697 26.4022C19.168 25.5817 20.2008 25.315 21.0252 25.815C21.8363 26.3055 22.6958 26.6622 23.6297 26.8306C25.4674 27.1606 27.1941 26.8567 28.803 25.9106C29.1313 25.7172 29.463 25.5655 29.8547 25.5678C30.6141 25.5722 31.2791 26.0583 31.4997 26.7811C31.7213 27.5094 31.4452 28.2978 30.8002 28.7128C29.7952 29.3594 28.7069 29.815 27.548 30.1006C27.498 30.1122 27.4491 30.1267 27.3791 30.145C27.4263 30.1961 27.463 30.2361 27.5019 30.275C28.5319 31.305 29.5624 32.3333 30.5913 33.365C31.193 33.9683 31.3197 34.7961 30.9202 35.4861C30.3452 36.48 29.023 36.645 28.1947 35.8217C27.168 34.8006 26.1469 33.775 25.1241 32.7522C25.0874 32.7156 25.053 32.6761 24.9713 32.5872C24.9374 32.6478 24.9191 32.7067 24.8813 32.7444C23.8563 33.7733 22.8313 34.8006 21.8019 35.825C21.0958 36.5294 20.0174 36.525 19.3341 35.8228C18.7091 35.1806 18.6913 34.1606 19.2958 33.4867C19.3774 33.3944 19.4663 33.3078 19.553 33.2205C20.5363 32.2367 21.5191 31.2544 22.5024 30.27C22.5363 30.2356 22.5713 30.1972 22.6241 30.1422Z" fill="white"/>
<path fill-rule="evenodd" clip-rule="evenodd" d="M25.0027 13.6478C28.2277 13.6478 30.8588 16.28 30.8582 19.505C30.8577 22.7339 28.2515 25.3622 25.0049 25.3633C21.7399 25.3667 19.1471 22.7344 19.1421 19.5161C19.1365 16.2867 21.7493 13.6567 25.0027 13.6478ZM27.4232 19.5105C27.4243 18.1761 26.3449 17.0878 25.0171 17.0844C23.6715 17.0811 22.5754 18.16 22.5732 19.4889C22.571 20.82 23.6504 21.9283 24.9532 21.9294C26.3338 21.9305 27.4221 20.865 27.4232 19.5105Z" fill="white"/>
</svg>
