<svg width="16" height="19" viewBox="0 0 16 19" fill="none" xmlns="http://www.w3.org/2000/svg">
<path d="M8.02693 19L7.62235 18.5581C7.35262 18.2368 0.474609 11.0465 0.474609 6.74842C0.474609 3.01269 3.89114 0 8.02693 0C12.1627 0 15.5793 3.05286 15.5793 6.74842C15.5793 11.0465 8.70124 18.277 8.43152 18.5581L8.02693 19ZM8.02693 0.923897C4.43059 0.923897 1.55352 3.53489 1.55352 6.70825C1.55352 10.0825 6.54344 15.8266 8.02693 17.4736C9.51042 15.8266 14.5003 10.1226 14.5003 6.70825C14.5003 3.53489 11.6233 0.923897 8.02693 0.923897Z" fill="#4C5057"/>
<path d="M8.02722 9.31927C6.45382 9.31927 5.15015 8.15436 5.15015 6.74845C5.15015 5.34253 6.45382 4.17761 8.02722 4.17761C9.60062 4.17761 10.9043 5.34253 10.9043 6.74845C10.9043 8.15436 9.60062 9.31927 8.02722 9.31927ZM8.02722 5.14168C7.03822 5.14168 6.22905 5.86472 6.22905 6.74845C6.22905 7.63217 7.03822 8.35521 8.02722 8.35521C9.01621 8.35521 9.82539 7.63217 9.82539 6.74845C9.82539 5.86472 9.01621 5.14168 8.02722 5.14168Z" fill="#4C5057"/>
</svg>
