<svg id="Слой_1" data-name="Слой 1" xmlns="http://www.w3.org/2000/svg" viewBox="0 0 872.5 152.02"><defs><style>.cls-1{fill:#f7f7f7;}.cls-2{fill:#f37e09;}.cls-3{fill:#059ae5;}</style></defs><title>synrate_bright ув ромб</title><path class="cls-1" d="M315.6,489.6c4,0,6.5,2.2,6.5,5.4v6.7c0,3.3-2.5,5.4-6.5,5.4H286.3c-2.5,0-4,1.7-4,4.4v10.3h33.3c4,0,6.5,2.2,6.5,5.5v22.4c0,12.6-8.5,21.9-19.9,21.9H264c-4,0-6.5-2.2-6.5-5.4v-6.6c0-3.3,2.5-5.5,6.5-5.5h29.3c2.5,0,4-1.5,4-4.3V539.4H264c-4,0-6.5-2.7-6.5-6.1V511.4c0-12.6,8.5-22,19.9-22l38.2.2Z" transform="translate(-97 -458.08)"/><path class="cls-1" d="M352.5,489.6c4,0,6.5,2.2,6.5,5.4v54.9c0,2.7,1.5,4.3,4,4.3h16.8c2.5,0,4-1.5,4-4.3V495c0-3.3,2.5-5.4,6.5-5.4h11.9c4,0,6.5,2.2,6.5,5.4v93.1c0,12.6-8.5,22-19.9,22H350.6c-4,0-6.5-2.2-6.5-5.4v-5.4c0-3.3,2.5-5.5,6.5-5.5h29.3c2.5,0,4-1.5,4-4.3V572H354c-11.4,0-19.9-9.3-19.9-21.9V495.2c0-3.3,2.5-5.4,6.5-5.4h11.9Z" transform="translate(-97 -458.08)"/><path class="cls-1" d="M446.4,566.3a25.06,25.06,0,0,0,.4,6.1c-3.2-.3-8-.6-12.9-.6s-9.8,0-12.9.6a25.06,25.06,0,0,0,.4-6.1V495.1c0-3.3,2.5-5.4,6.5-5.4h48.2c11.4,0,19.9,9.4,19.9,22v54.7a25.06,25.06,0,0,0,.4,6.1c-3.2-.3-7.9-.6-12.9-.6s-9.9,0-12.9.6a25.06,25.06,0,0,0,.4-6.1V511.7c0-2.7-1.5-4.4-4-4.4H446.2l.2,59Z" transform="translate(-97 -458.08)"/><path class="cls-1" d="M551.4,489.6c4,0,6.5,2.2,6.5,5.4v6.7c0,3.3-2.5,5.4-6.5,5.4H537.1c-2.5,0-4,1.7-4,4.4v54.7a25.06,25.06,0,0,0,.4,6.1c-3.2-.3-8-.6-12.9-.6s-9.8,0-12.9.6a25.06,25.06,0,0,0,.4-6.1V495c0-3.3,2.5-5.4,6.5-5.4Z" transform="translate(-97 -458.08)"/><path class="cls-1" d="M566.9,549.9V511.5c0-12.6,8.5-22,19.9-22h46c4,0,6.5,2.2,6.5,5.4v51.4c0,3.3.1,7.5,3.9,7.8s6,2.6,6,5.5v6.6c0,3.3-2.5,5.4-6.5,5.4H586.8C575.4,571.8,566.9,562.5,566.9,549.9Zm28.8-42.8c-2.5,0-4,1.7-4,4.4v38.4c0,2.7,1.5,4.3,4,4.3h21.1V507.1Z" transform="translate(-97 -458.08)"/><path class="cls-1" d="M684.9,469.9c4,0,6.5,2.2,6.5,5.4v14.3h8.4c4,0,6.5,2.4,6.5,5.8V502c0,3.3-2.5,5.2-6.5,5.2h-8.4v42.1c0,3.3,0,7.9,4,8.2,3.7.3,6,2.4,6,5.4v6.7c0,3.3-2.5,5.4-6.5,5.4h-8.4c-11.4,0-19.9-9.4-19.9-22V507H658c-4,0-6.5-2.2-6.5-5.4v-6.7c0-3.3,2.5-5.4,6.5-5.4h8.4V475.2c0-3.3,2.5-5.4,6.5-5.4h12Z" transform="translate(-97 -458.08)"/><path class="cls-1" d="M769.5,489.6c11.4,0,19.9,9.4,19.9,22v23.2c0,3.3-2.5,5.4-6.5,5.4H739.7v9.7c0,2.7,1.5,4.3,4,4.3H773c4,0,6.5,2.2,6.5,5.5v6.6c0,3.3-2.5,5.4-6.5,5.4H734.8c-11.4,0-19.9-9.3-19.9-21.9V511.4c0-12.6,8.5-22,19.9-22h34.7Zm-29.7,22v12.3h24.8V511.6c0-2.7-1.5-4.4-4-4.4H743.8C741.3,507.1,739.8,508.8,739.8,511.6Z" transform="translate(-97 -458.08)"/><path class="cls-1" d="M817.5,550.4c4,0,6.5,2.2,6.5,5.4v10.4c0,3.3-2.5,5.4-6.5,5.4H808c-4,0-6.5-2.2-6.5-5.4V555.8c0-3.3,2.5-5.4,6.5-5.4Z" transform="translate(-97 -458.08)"/><path class="cls-1" d="M879.5,489.6c4,0,6.5,2.2,6.5,5.4v6.7c0,3.3-2.5,5.4-6.5,5.4H865.2c-2.5,0-4,1.7-4,4.4v54.7a25.06,25.06,0,0,0,.4,6.1c-3.2-.3-8-.6-12.9-.6s-9.8,0-12.9.6a25.06,25.06,0,0,0,.4-6.1V495c0-3.3,2.5-5.4,6.5-5.4Z" transform="translate(-97 -458.08)"/><path class="cls-1" d="M913.3,489.6c4,0,6.5,2.2,6.5,5.4v54.9c0,2.7,1.5,4.3,4,4.3h16.8c2.5,0,4-1.5,4-4.3V495c0-3.3,2.5-5.4,6.5-5.4H963c4,0,6.5,2.2,6.5,5.4v71.2c0,3.3-2.5,5.4-6.5,5.4H914.8c-11.4,0-19.9-9.3-19.9-21.9V495c0-3.3,2.5-5.4,6.5-5.4Z" transform="translate(-97 -458.08)"/><path class="cls-2" d="M245.1,531.5v1.2a14,14,0,0,1-3.8,8.8l-59,59a13.1,13.1,0,0,0,0-18.5l-11.1-11.1L210,532.1l-49.8-49.8a13.1,13.1,0,0,1,0-18.5l1.9-1.9a13.11,13.11,0,0,1,18.5,0l60.9,60.9A12.61,12.61,0,0,1,245.1,531.5Z" transform="translate(-97 -458.08)"/><path class="cls-2" d="M175.5,605.46h0l-.43.16Z" transform="translate(-97 -458.08)"/><path class="cls-2" d="M179.49,603.2a13.05,13.05,0,0,1-4,2.26,9.71,9.71,0,0,0,1-.41A13.3,13.3,0,0,0,179.49,603.2Z" transform="translate(-97 -458.08)"/><path class="cls-2" d="M180.4,602.4c-.3.28-.6.55-.91.8A11.32,11.32,0,0,0,180.4,602.4Z" transform="translate(-97 -458.08)"/><path class="cls-3" d="M182.2,600.5l-1.9,1.9a13,13,0,0,1-3.79,2.65,10.28,10.28,0,0,1-1,.42,13.48,13.48,0,0,1-3.27.73h-2.4a12.33,12.33,0,0,1-8.1-3.8l-60.9-60.9a13.3,13.3,0,0,1-3.8-8.1v-1.8a13.76,13.76,0,0,1,3.8-8.8l60.9-60.9a13,13,0,0,1,9.45-3.82,13,13,0,0,0-9.05,3.82l-1.9,1.9a13.1,13.1,0,0,0,0,18.5l11,10.95L132.3,532.1,182.2,582A13.1,13.1,0,0,1,182.2,600.5Z" transform="translate(-97 -458.08)"/></svg>