<?xml version="1.0" encoding="utf-8"?>
<svg viewBox="110.5 469.8 859 140.3" xmlns="http://www.w3.org/2000/svg">
  <defs>
    <style type="text/css">.st0{fill:#353535;}
	.st1{fill:#F7F7F7;}
	.st2{fill:#F37E09;}
	.st3{fill:#059AE5;}</style>
  </defs>
  <g>
    <title>Layer 1</title>
    <g id="svg_1">
      <path id="svg_2" d="m315.6,489.6c4,0 6.5,2.2 6.5,5.4l0,6.7c0,3.3 -2.5,5.4 -6.5,5.4l-29.3,0c-2.5,0 -4,1.7 -4,4.4l0,10.3l33.3,0c4,0 6.5,2.2 6.5,5.5l0,22.4c0,12.6 -8.5,21.9 -19.9,21.9l-38.2,0c-4,0 -6.5,-2.2 -6.5,-5.4l0,-6.6c0,-3.3 2.5,-5.5 6.5,-5.5l29.3,0c2.5,0 4,-1.5 4,-4.3l0,-10.4l-33.3,0c-4,0 -6.5,-2.7 -6.5,-6.1l0,-21.9c0,-12.6 8.5,-22 19.9,-22l38.2,0.2l0,0z" class="st0"/>
      <path id="svg_3" d="m352.5,489.6c4,0 6.5,2.2 6.5,5.4l0,54.9c0,2.7 1.5,4.3 4,4.3l16.8,0c2.5,0 4,-1.5 4,-4.3l0,-54.9c0,-3.3 2.5,-5.4 6.5,-5.4l11.9,0c4,0 6.5,2.2 6.5,5.4l0,69l0,24.1c0,12.6 -8.5,22 -19.9,22l-38.2,0c-4,0 -6.5,-2.2 -6.5,-5.4l0,-5.4c0,-3.3 2.5,-5.5 6.5,-5.5l29.3,0c2.5,0 4,-1.5 4,-4.3l0,-17.5l-29.9,0c-11.4,0 -19.9,-9.3 -19.9,-21.9l0,-54.9c0,-3.3 2.5,-5.4 6.5,-5.4l11.9,0l0,-0.2z" class="st0"/>
      <path id="svg_4" d="m446.4,566.3c0,2.2 -0.1,3.9 0.4,6.1c-3.2,-0.3 -8,-0.6 -12.9,-0.6c-4.9,0 -9.8,0 -12.9,0.6c0.5,-2.2 0.4,-3.9 0.4,-6.1l0,-71.2c0,-3.3 2.5,-5.4 6.5,-5.4l48.2,0c11.4,0 19.9,9.4 19.9,22l0,54.7c0,2.2 -0.1,3.9 0.4,6.1c-3.2,-0.3 -7.9,-0.6 -12.9,-0.6c-4.9,0 -9.9,0 -12.9,0.6c0.5,-2.2 0.4,-3.9 0.4,-6.1l0,-54.7c0,-2.7 -1.5,-4.4 -4,-4.4l-20.8,0l0.2,59l0,0z" class="st0"/>
      <path id="svg_5" d="m551.4,489.6c4,0 6.5,2.2 6.5,5.4l0,6.7c0,3.3 -2.5,5.4 -6.5,5.4l-14.3,0c-2.5,0 -4,1.7 -4,4.4l0,54.7c0,2.2 -0.1,3.9 0.4,6.1c-3.2,-0.3 -8,-0.6 -12.9,-0.6c-4.9,0 -9.8,0 -12.9,0.6c0.5,-2.2 0.4,-3.9 0.4,-6.1l0,-71.2c0,-3.3 2.5,-5.4 6.5,-5.4l36.8,0z" class="st0"/>
      <path id="svg_6" d="m566.9,549.9l0,-38.4c0,-12.6 8.5,-22 19.9,-22l46,0c4,0 6.5,2.2 6.5,5.4l0,51l0,0.4c0,3.3 0.1,7.5 3.9,7.8c3.7,0.3 6,2.6 6,5.5l0,6.6c0,3.3 -2.5,5.4 -6.5,5.4l-55.9,0c-11.4,0.2 -19.9,-9.1 -19.9,-21.7zm28.8,-42.8c-2.5,0 -4,1.7 -4,4.4l0,38.4c0,2.7 1.5,4.3 4,4.3l21.1,0l0,-47.1l-21.1,0z" class="st0"/>
      <path id="svg_7" d="m684.9,469.9c4,0 6.5,2.2 6.5,5.4l0,14.3l8.4,0c4,0 6.5,2.4 6.5,5.8l0,4.4l0,2.2c0,3.3 -2.5,5.2 -6.5,5.2l-8.4,0l0,42.1c0,3.3 0,7.9 4,8.2c3.7,0.3 6,2.4 6,5.4l0,6.7c0,3.3 -2.5,5.4 -6.5,5.4l-8.4,0c-11.4,0 -19.9,-9.4 -19.9,-22l0,-46l-8.6,0c-4,0 -6.5,-2.2 -6.5,-5.4l0,-6.7c0,-3.3 2.5,-5.4 6.5,-5.4l8.4,0l0,-14.3c0,-3.3 2.5,-5.4 6.5,-5.4l12,0l0,0.1z" class="st0"/>
      <path id="svg_8" d="m769.5,489.6c11.4,0 19.9,9.4 19.9,22l0,23.2c0,3.3 -2.5,5.4 -6.5,5.4l-43.2,0l0,9.7c0,2.7 1.5,4.3 4,4.3l29.3,0c4,0 6.5,2.2 6.5,5.5l0,6.6c0,3.3 -2.5,5.4 -6.5,5.4l-38.2,0c-11.4,0 -19.9,-9.3 -19.9,-21.9l0,-38.4c0,-12.6 8.5,-22 19.9,-22l34.7,0l0,0.2zm-29.7,22l0,12.3l24.8,0l0,-12.3c0,-2.7 -1.5,-4.4 -4,-4.4l-16.8,0c-2.5,-0.1 -4,1.6 -4,4.4z" class="st0"/>
      <path id="svg_9" d="m817.5,550.4c4,0 6.5,2.2 6.5,5.4l0,10.4c0,3.3 -2.5,5.4 -6.5,5.4l-9.5,0c-4,0 -6.5,-2.2 -6.5,-5.4l0,-10.4c0,-3.3 2.5,-5.4 6.5,-5.4l9.5,0z" class="st1" style="fill: rgb(53, 53, 53);"/>
      <path id="svg_10" d="m879.5,489.6c4,0 6.5,2.2 6.5,5.4l0,6.7c0,3.3 -2.5,5.4 -6.5,5.4l-14.3,0c-2.5,0 -4,1.7 -4,4.4l0,54.7c0,2.2 -0.1,3.9 0.4,6.1c-3.2,-0.3 -8,-0.6 -12.9,-0.6c-4.9,0 -9.8,0 -12.9,0.6c0.5,-2.2 0.4,-3.9 0.4,-6.1l0,-71.2c0,-3.3 2.5,-5.4 6.5,-5.4l36.8,0z" class="st0"/>
      <path id="svg_11" d="m913.3,489.6c4,0 6.5,2.2 6.5,5.4l0,54.9c0,2.7 1.5,4.3 4,4.3l16.8,0c2.5,0 4,-1.5 4,-4.3l0,-54.9c0,-3.3 2.5,-5.4 6.5,-5.4l11.9,0c4,0 6.5,2.2 6.5,5.4l0,71.2c0,3.3 -2.5,5.4 -6.5,5.4l-48.2,0c-11.4,0 -19.9,-9.3 -19.9,-21.9l0,-54.7c0,-3.3 2.5,-5.4 6.5,-5.4l11.9,0l0,0z" class="st0"/>
      <path id="svg_13" d="m178.2,570.9c4,4 4,10.7 0,14.7l-1.5,1.5c-1.8,1.8 -4,2.8 -6.4,3c-0.1,0 -0.3,0 -0.5,0c-0.3,0 -0.6,0 -0.9,0c-0.1,0 -0.3,0 -0.5,0c-2.4,-0.2 -4.7,-1.2 -6.5,-3l-48.4,-48.4c-1.8,-1.8 -2.8,-4.1 -3,-6.5c0,-0.1 0,-0.3 0,-0.5c0,-0.3 0,-0.6 0,-0.9c0.1,-2.5 1.1,-5 3,-7l48.4,-48.4c4,-4 10.6,-4 14.7,0l1.5,1.5c4,4 4,10.6 0,14.7l-39.6,39.6l39.7,39.7z" class="st3"/>
      <path id="svg_12" d="m228.2,530.8c0,0.3 0,0.6 0,0.9c-0.1,2.5 -1.1,5 -3,7l-48.4,48.3c-1.8,1.8 -4.1,2.8 -6.5,3c2.4,-0.2 4.6,-1.2 6.4,-3l1.5,-1.5c4,-4 4,-10.6 0,-14.7l-8.8,-8.8l30.8,-30.8l-39.6,-39.6c-4,-4 -4,-10.6 0,-14.7l1.5,-1.5c4,-4 10.6,-4 14.7,0l48.4,48.4c1.9,2 2.9,4.4 3,7z" class="st2"/>
    </g>
  </g>
</svg>