<svg width="14" height="15" viewBox="0 0 14 15" fill="none" xmlns="http://www.w3.org/2000/svg">
<path d="M12.2418 10.6694C14.2727 8.44126 14.2726 4.81585 12.2418 2.58776C10.2109 0.359663 6.90634 0.359663 4.87546 2.58776C3.15249 4.47799 2.89155 7.28926 4.09193 9.48455C4.09193 9.48455 4.17815 9.64325 4.0617 9.77092C3.39735 10.4997 1.40418 12.6864 1.40418 12.6864C0.875224 13.2667 0.749302 14.0781 1.21838 14.5928L1.29914 14.6813C1.76822 15.196 2.50787 15.0579 3.03679 14.4776C3.03679 14.4776 5.02574 12.2955 5.68872 11.5682C5.81076 11.4344 5.95537 11.5289 5.95537 11.5289C7.95636 12.8458 10.5188 12.5596 12.2418 10.6694ZM5.8371 9.6143C4.33645 7.96797 4.33649 5.28923 5.83714 3.64289C7.33779 1.99661 9.77948 1.99656 11.2801 3.64289C12.7807 5.28918 12.7807 7.96797 11.2801 9.6143C9.77944 11.2605 7.33779 11.2605 5.8371 9.6143Z" fill="#C4C4C4"/>
<path d="M6.16887 6.2897C6.09902 6.2897 6.02801 6.27464 5.95957 6.24293C5.68618 6.11598 5.55828 5.76991 5.67398 5.46994C6.40123 3.58446 8.39106 2.69964 10.1096 3.49749C10.383 3.62443 10.5109 3.97051 10.3952 4.27048C10.2795 4.57046 9.96412 4.71069 9.6906 4.5838C8.51805 4.03947 7.16032 4.64319 6.6642 5.92957C6.5774 6.15455 6.37832 6.2897 6.16887 6.2897Z" fill="#C4C4C4"/>
</svg>
