<svg width="15" height="13" viewBox="0 0 15 13" fill="none" xmlns="http://www.w3.org/2000/svg">
<path d="M6.67947 12.9923C6.2305 12.9923 5.81605 12.838 5.50522 12.5602L0.911827 8.45579C0.255628 7.86944 0.255628 6.94362 0.911827 6.35727L7.05938 0.864091C7.61197 0.370323 8.61354 0 9.37335 0H13.3105C14.2085 0 14.9683 0.678928 14.9683 1.4813V4.99941C14.9683 5.67834 14.5539 6.57329 14.0013 7.06706L7.85373 12.5602C7.5429 12.838 7.12845 12.9923 6.67947 12.9923ZM9.37335 0.925816C8.88983 0.925816 8.13002 1.20356 7.78465 1.51216L1.6371 7.00535C1.39534 7.22137 1.39534 7.56084 1.6371 7.77686L6.2305 11.8813C6.47225 12.0973 6.8867 12.0973 7.09392 11.8813L13.2415 6.38813C13.5868 6.07953 13.8977 5.43146 13.8977 4.96855V1.45045C13.8977 1.14184 13.6214 0.894954 13.276 0.894954H9.37335V0.925816Z" fill="#6D7076"/>
<path d="M10.8238 5.52405C9.71863 5.52405 8.78613 4.72168 8.78613 3.70328C8.78613 2.71574 9.68409 1.88251 10.8238 1.88251C11.929 1.88251 12.8615 2.68488 12.8615 3.70328C12.8615 4.69081 11.9635 5.52405 10.8238 5.52405ZM10.8238 2.7466C10.2367 2.7466 9.75316 3.17865 9.75316 3.70328C9.75316 4.22791 10.2367 4.65996 10.8238 4.65996C11.4109 4.65996 11.8944 4.22791 11.8944 3.70328C11.8944 3.17865 11.4109 2.7466 10.8238 2.7466Z" fill="#6D7076"/>
</svg>
