<svg width="61" height="57" viewBox="0 0 61 57" fill="none" xmlns="http://www.w3.org/2000/svg">
<path d="M30.5345 56.9375C30.3538 56.9375 30.1709 56.8888 30.0084 56.7913L12.7652 46.3669C12.4605 46.1841 12.2756 45.853 12.2756 45.4975V39.7349C12.2756 39.1742 12.7306 38.7192 13.2913 38.7192C13.8519 38.7192 14.3069 39.1742 14.3069 39.7349V44.9247L30.5345 54.7356L46.7642 44.9247V39.7349C46.7642 39.1742 47.2192 38.7192 47.7799 38.7192C48.3405 38.7192 48.7955 39.1742 48.7955 39.7349V45.4975C48.7955 45.853 48.6106 46.182 48.306 46.3669L31.0606 56.7913C30.8981 56.8888 30.7153 56.9375 30.5345 56.9375Z" fill="#059AE5"/>
<path d="M18.4588 43.9517C18.2658 43.9517 18.0708 43.8969 17.9002 43.7831L0.691458 32.4609C0.421302 32.2842 0.250677 31.9856 0.234427 31.6626C0.218177 31.3376 0.358333 31.0269 0.612239 30.8217L12.5113 21.2159C12.8485 20.9478 13.3197 20.9153 13.6854 21.1448L31.0363 31.943C31.3126 32.1136 31.4893 32.4081 31.5116 32.7331C31.536 33.0581 31.4019 33.373 31.1521 33.5822L19.1108 43.712C18.924 43.8725 18.6924 43.9517 18.4588 43.9517ZM2.97052 31.5286L18.3836 41.6727L28.7755 32.9302L13.2243 23.2512L2.97052 31.5286Z" fill="#059AE5"/>
<path d="M13.6872 22.8694L12.6147 21.1448L28.7774 11.0861L18.3855 2.34155L2.97037 12.4856L9.98631 18.1487C10.423 18.5001 10.4921 19.14 10.1386 19.5767C9.78928 20.0134 9.14537 20.0845 8.71068 19.7291L0.612088 13.1925C0.358182 12.9894 0.220057 12.6766 0.234275 12.3516C0.250525 12.0286 0.419119 11.73 0.691307 11.5533L17.9001 0.229054C18.2758 -0.018758 18.7674 0.0117109 19.1127 0.300148L31.154 10.43C31.4038 10.6392 31.5358 10.9561 31.5135 11.2791C31.4912 11.6041 31.3124 11.8966 31.0382 12.0692L13.6872 22.8694Z" fill="#059AE5"/>
<path d="M42.5413 43.9517C42.3077 43.9517 42.0761 43.8704 41.8872 43.714L29.846 33.5842C29.5961 33.375 29.4641 33.0581 29.4864 32.7351C29.5088 32.4101 29.6875 32.1176 29.9618 31.945L47.3127 21.1448C47.6804 20.9153 48.1516 20.9458 48.4868 21.2159L60.3858 30.8217C60.6397 31.0269 60.7778 31.3376 60.7636 31.6626C60.7474 31.9856 60.5788 32.2842 60.3066 32.4609L43.0979 43.7851C42.9293 43.8969 42.7343 43.9517 42.5413 43.9517ZM32.2246 32.9301L42.6164 41.6726L58.0296 31.5286L47.7758 23.2492L32.2246 32.9301Z" fill="#059AE5"/>
<path d="M47.851 23.0217C47.6662 23.0217 47.4793 22.9709 47.3148 22.8673L29.9639 12.0712C29.6876 11.9006 29.5109 11.6061 29.4885 11.2811C29.4642 10.9561 29.5982 10.6412 29.8481 10.432L41.8893 0.300131C42.2326 0.0116938 42.7242 -0.0167438 43.102 0.229037L60.3107 11.5533C60.5809 11.73 60.7515 12.0286 60.7678 12.3515C60.784 12.6765 60.6439 12.9873 60.39 13.1925L48.4909 22.7962C48.304 22.9465 48.0786 23.0217 47.851 23.0217ZM32.2246 11.0861L47.7759 20.7629L58.0296 12.4856L42.6165 2.34154L32.2246 11.0861Z" fill="#059AE5"/>
</svg>
