<svg width="42" height="29" viewBox="0 0 42 29" fill="none" xmlns="http://www.w3.org/2000/svg">
<rect x="1" y="1" width="40" height="27" rx="9" fill="#4C5057" stroke="white" stroke-width="2"/>
<path d="M20.9915 11.8246C20.9915 14.0559 22.6953 15.8993 24.8238 15.8993C26.9523 15.8993 28.6562 14.0559 28.6562 11.8246C28.6562 9.59336 26.9523 7.75 24.8238 7.75C22.6953 7.75 20.9915 9.59336 20.9915 11.8246ZM22.2176 11.8246C22.2176 10.2644 23.4009 9.02522 24.8238 9.02522C26.2467 9.02522 27.4301 10.2644 27.4301 11.8246C27.4301 13.3849 26.2467 14.6241 24.8238 14.6241C23.4009 14.6241 22.2176 13.3849 22.2176 11.8246Z" fill="white" stroke="white" stroke-width="0.5"/>
<path d="M30.2485 21.7078C30.2485 22.0433 30.507 22.3435 30.8598 22.3435C31.2156 22.3435 31.4712 22.0364 31.4712 21.7041C31.4712 17.8158 28.5044 14.6241 24.8238 14.6241C21.1433 14.6241 18.1765 17.8158 18.1765 21.7041C18.1765 22.0427 18.4414 22.3398 18.7913 22.3398C19.1441 22.3398 19.4026 22.0396 19.4026 21.7041C19.4026 18.4872 21.852 15.903 24.8273 15.903C27.8022 15.903 30.2485 18.4905 30.2485 21.7078Z" fill="white" stroke="white" stroke-width="0.5"/>
<path d="M10.3613 14.4842H15.9947C16.3475 14.4842 16.606 14.1839 16.606 13.8484C16.606 13.5129 16.3475 13.2126 15.9947 13.2126H10.3613C10.0085 13.2126 9.75 13.5129 9.75 13.8484C9.75 14.1839 10.0085 14.4842 10.3613 14.4842Z" fill="white" stroke="white" stroke-width="0.5"/>
<path d="M12.5649 16.8537C12.5649 17.1892 12.8234 17.4895 13.1763 17.4895L13.5376 16.8537H13.7876V16.8519V10.8394C13.7876 10.5039 13.5291 10.2036 13.1763 10.2036C12.8234 10.2036 12.5649 10.5039 12.5649 10.8394V16.8537Z" fill="white" stroke="white" stroke-width="0.5"/>
</svg>
