<svg width="33" height="33" viewBox="0 0 33 33" fill="none" xmlns="http://www.w3.org/2000/svg">
<path fill-rule="evenodd" clip-rule="evenodd" d="M16.3492 32.6984C25.3786 32.6984 32.6984 25.3786 32.6984 16.3492C32.6984 7.31979 25.3786 0 16.3492 0C7.31979 0 0 7.31979 0 16.3492C0 25.3786 7.31979 32.6984 16.3492 32.6984Z" fill="#57BB63"/>
<path fill-rule="evenodd" clip-rule="evenodd" d="M16.388 25.1891C14.8291 25.1891 13.3647 24.7907 12.0905 24.0915L7.16846 25.6556L8.77299 20.9224C7.96368 19.593 7.49745 18.0339 7.49745 16.3674C7.49745 11.4952 11.4778 7.54565 16.3882 7.54565C21.298 7.54565 25.2783 11.4952 25.2783 16.3674C25.2783 21.2396 21.2982 25.1891 16.388 25.1891ZM16.388 8.95058C12.2662 8.95058 8.91345 12.2778 8.91345 16.3674C8.91345 17.9902 9.44246 19.4932 10.3371 20.716L9.40342 23.4703L12.2756 22.5573C13.456 23.3323 14.8698 23.7842 16.388 23.7842C20.5092 23.7842 23.8626 20.4572 23.8626 16.3676C23.8626 12.278 20.5092 8.95058 16.388 8.95058ZM20.8772 18.3991C20.8225 18.3092 20.6772 18.2548 20.4597 18.1468C20.2416 18.0387 19.1699 17.5154 18.9705 17.4435C18.7705 17.3715 18.625 17.3351 18.4799 17.5516C18.3348 17.7681 17.9171 18.2548 17.7897 18.3991C17.6625 18.5436 17.5356 18.5617 17.3176 18.4534C17.0999 18.3454 16.3977 18.117 15.565 17.3803C14.9173 16.8073 14.4798 16.0998 14.3529 15.883C14.2257 15.6667 14.3394 15.5498 14.4484 15.4422C14.5464 15.3452 14.6664 15.1896 14.7754 15.0635C14.8845 14.9371 14.9207 14.8472 14.9931 14.7027C15.066 14.5584 15.0296 14.4322 14.975 14.3238C14.9205 14.2157 14.4845 13.1517 14.3029 12.7186C14.1214 12.286 13.9401 12.3581 13.8128 12.3581C13.6856 12.3581 13.5403 12.3399 13.395 12.3399C13.2498 12.3399 13.0135 12.3941 12.8137 12.6104C12.6141 12.8269 12.0513 13.3501 12.0513 14.4139C12.0513 15.478 12.8318 16.506 12.9411 16.6501C13.0499 16.7942 14.4482 19.0487 16.6635 19.9145C18.8795 20.7802 18.8795 20.4914 19.2791 20.4554C19.6782 20.4194 20.568 19.9324 20.7501 19.4276C20.9314 18.9223 20.9314 18.4893 20.8772 18.3991Z" fill="white"/>
</svg>
